<svg version="1.1" id="Layer_1" xmlns="http://www.w3.org/2000/svg" xmlns:xlink="http://www.w3.org/1999/xlink" x="0px" y="0px"
	 width="100%" viewBox="0 0 1024 1024" enable-background="new 0 0 1024 1024" xml:space="preserve">
<path fill="#000000" opacity="1.000000" stroke="none" 
	d="
M172.543747,673.426819 
	C165.071548,663.967163 162.861511,652.728943 159.739899,641.899597 
	C154.336411,623.153992 152.264496,604.055786 154.411331,584.587402 
	C154.564728,583.196228 154.474915,581.869995 153.130508,581.066711 
	C151.383301,580.022766 150.314529,581.404114 149.232941,582.353088 
	C142.204102,588.520264 134.186432,592.747253 125.045677,594.785950 
	C121.093651,595.667542 117.092545,595.766541 113.143021,594.922424 
	C111.108414,594.487549 109.433022,593.206421 109.042328,591.001648 
	C108.645508,588.762268 110.384819,587.777039 111.992073,586.852539 
	C124.253868,579.799561 131.708694,568.831177 135.404556,555.660645 
	C141.708542,533.195618 146.385483,510.290771 145.579895,486.819977 
	C144.406723,452.639130 151.277527,419.701721 159.061920,386.760010 
	C167.661865,350.367035 182.423172,316.361847 198.029984,282.635345 
	C198.655518,281.283539 199.445221,280.007751 199.983856,278.552795 
	C196.677780,281.646240 193.861557,285.144379 191.359222,288.929138 
	C179.416901,306.991577 167.450134,325.037842 155.486847,343.086456 
	C154.566299,344.475220 153.701889,345.917725 152.639297,347.191711 
	C151.260574,348.844696 150.343658,351.978577 147.337708,350.206604 
	C144.663651,348.630341 146.029373,346.128052 146.802200,343.938141 
	C153.155884,325.933929 162.439941,309.332916 171.929977,292.907654 
	C187.669601,265.665619 202.161789,237.652176 221.194092,212.401550 
	C238.146851,189.909912 254.952057,167.255646 274.041626,146.547760 
	C300.316376,118.045555 330.685883,95.234764 367.568695,81.627716 
	C384.944000,75.217499 402.060211,68.448067 420.632080,66.277657 
	C433.734131,64.746475 446.441071,66.650879 459.289215,69.021019 
	C475.742340,72.056175 491.472992,76.980438 506.625092,84.086418 
	C502.668488,79.753815 498.020813,76.401321 493.247833,73.181931 
	C491.365021,71.911964 488.787750,70.490860 490.356079,67.697388 
	C491.913330,64.923622 494.549377,66.366356 496.604309,67.228241 
	C514.024658,74.534828 527.840759,86.243462 537.977905,102.118896 
	C540.465027,106.013893 542.258850,106.709724 546.576599,104.443672 
	C558.364136,98.257408 571.129150,95.069366 584.470276,94.704231 
	C611.580017,93.962257 638.381287,95.869400 664.325378,104.620277 
	C673.665222,107.770592 682.635986,111.731651 691.195740,116.623253 
	C721.765259,134.092636 747.603943,157.063507 770.864807,183.388718 
	C795.774170,211.579636 816.788330,242.124313 832.073730,276.559235 
	C837.514771,288.816895 840.511108,301.823395 843.832031,314.681091 
	C850.620728,340.964722 858.729797,366.823608 867.356323,392.537689 
	C872.237061,407.086273 874.821350,422.189545 878.209534,437.099457 
	C881.782043,452.820557 885.845825,468.447937 888.834045,484.278778 
	C891.740479,499.675964 896.865967,514.141235 904.206299,527.874268 
	C906.768677,532.668274 909.162964,537.604431 914.511658,540.341797 
	C917.841187,542.045837 916.749329,545.186829 913.123596,547.533447 
	C903.288147,553.899048 892.802490,553.671021 881.969788,551.427124 
	C880.710999,551.166443 879.389954,550.603394 878.045532,551.356628 
	C876.924072,552.795593 877.245911,554.525879 877.274353,556.148499 
	C877.858582,589.479553 869.892761,621.107788 858.156555,651.970459 
	C856.315979,656.810730 853.925354,661.412476 849.946106,664.948669 
	C848.370728,666.348633 846.876099,668.596985 844.442200,666.919067 
	C842.118835,665.317444 843.236145,662.802612 844.050476,660.973633 
	C846.912292,654.545776 849.276428,648.002747 850.202637,640.996948 
	C850.418518,639.363708 850.597229,637.725586 850.494934,635.980042 
	C845.464478,645.346252 840.959717,654.937622 835.167969,663.841736 
	C828.384644,674.270203 820.273376,683.448792 810.638062,691.307983 
	C806.985046,694.287659 804.118958,697.785339 802.376160,702.336609 
	C795.141235,721.229919 789.674500,740.530457 788.307312,760.813477 
	C787.922302,766.525330 789.132141,772.067749 790.726562,777.538086 
	C791.451294,780.024719 792.958252,783.072205 789.746094,784.646912 
	C786.894165,786.045105 784.618774,783.722107 782.936707,781.721130 
	C777.147034,774.833618 775.174438,766.392822 773.722046,757.796509 
	C773.203003,754.724548 772.806091,751.631897 772.329651,748.386475 
	C769.726929,749.189697 769.538635,751.208618 768.857422,752.758362 
	C756.828674,780.123230 750.269836,808.679626 751.683655,838.643066 
	C752.360291,852.982910 754.489014,867.248901 765.161926,878.429138 
	C768.087158,881.493286 771.611572,883.660522 775.159668,885.848877 
	C776.868469,886.902649 778.825562,888.065430 777.894165,890.528809 
	C776.947144,893.033630 774.471863,893.223938 772.379150,892.918823 
	C765.027771,891.846680 758.371338,888.737793 751.910522,885.237366 
	C745.438965,881.731201 739.668640,877.294128 734.285522,870.523560 
	C736.031555,880.507874 738.560852,888.791199 743.944031,896.015564 
	C746.561462,899.528320 749.370850,902.690430 753.716858,904.229004 
	C756.285583,905.138428 758.798279,906.723450 758.041504,910.043030 
	C757.184753,913.801025 753.930115,913.377136 751.123779,913.208984 
	C749.484009,913.110779 747.753418,912.821106 746.265686,912.161865 
	C734.788513,907.075989 723.402344,901.828125 717.291016,889.775024 
	C716.916382,889.036255 716.425171,888.351135 715.937317,887.677979 
	C715.761230,887.434937 715.435608,887.300293 714.960205,886.960327 
	C713.300171,892.053955 714.864258,896.964722 715.626404,901.739319 
	C717.315247,912.319458 720.714600,922.404846 726.047791,931.777527 
	C727.539917,934.399963 729.061646,936.910461 731.641602,938.692261 
	C733.513062,939.984802 734.811707,941.892578 733.837646,944.272522 
	C732.927307,946.496887 730.892395,947.206604 728.558655,947.393494 
	C723.320557,947.812805 719.033691,945.746704 715.574463,942.130005 
	C713.271729,939.722595 710.665039,938.310425 707.514771,937.561218 
	C698.844666,935.499268 692.711365,929.688416 686.809265,923.418579 
	C689.970215,935.053528 695.068298,945.103638 707.231995,949.633728 
	C709.365051,950.428101 711.535583,951.281250 711.020935,954.046082 
	C710.535889,956.652161 708.215698,957.437866 706.008789,957.150085 
	C702.609802,956.706909 700.001404,958.938293 696.874512,959.268921 
	C690.217407,959.972778 684.445557,957.485291 678.888428,954.309692 
	C676.179810,952.761902 673.606812,950.976990 670.613647,949.070862 
	C669.709351,953.560791 671.234619,957.282532 672.336975,961.025940 
	C674.442505,968.175964 673.774963,972.479248 670.187317,973.926575 
	C666.917725,975.245667 661.328979,971.732849 658.437561,966.363525 
	C653.386963,956.984924 652.691101,946.481445 652.119507,936.303955 
	C650.775146,912.366882 650.289429,888.375977 649.789429,864.399902 
	C649.595520,855.099060 647.995728,845.790833 649.590942,836.466248 
	C649.782654,835.345825 649.704102,834.105347 648.314026,833.074158 
	C645.795288,833.033386 644.204529,835.183838 642.258911,836.560791 
	C622.138916,850.799805 603.200256,866.697388 582.228027,879.727966 
	C570.907898,886.761475 558.954468,892.682800 546.992065,898.578430 
	C537.904358,903.057251 528.152222,902.502319 518.602234,902.936951 
	C509.649139,903.344543 500.631989,902.672729 491.659149,902.181213 
	C487.163696,901.934875 482.890717,900.537048 478.784637,898.506836 
	C450.861481,884.700562 425.016479,867.781616 401.428619,847.409668 
	C397.160309,843.723267 392.444366,840.597900 386.718628,837.454041 
	C387.399017,844.080811 388.190399,850.057007 388.596313,856.059326 
	C389.935425,875.860474 389.764404,895.680054 388.651245,915.479675 
	C388.053101,926.119019 388.768433,936.787781 387.446960,947.421387 
	C386.872253,952.046082 386.442505,956.674805 385.403442,961.221863 
	C383.714325,968.613464 377.935516,973.198730 370.343445,973.276428 
	C368.386902,973.296509 366.762787,972.891907 365.719025,971.005798 
	C364.589661,968.964966 365.449280,967.423035 366.886230,966.140320 
	C372.563049,961.072571 373.211700,954.382080 373.167328,946.773499 
	C365.217987,953.958740 356.259338,958.414856 346.337738,960.744568 
	C341.866791,961.794373 337.244110,963.032104 332.616089,961.011536 
	C330.484558,960.080811 327.838776,959.557800 327.938538,956.585205 
	C328.030151,953.857300 330.529816,953.341919 332.578339,952.772827 
	C338.088989,951.242004 343.335266,949.329163 347.722351,943.622620 
	C342.053894,945.572937 337.764313,948.310669 332.730957,948.907410 
	C329.511475,949.289062 326.433899,949.399353 325.144470,945.946960 
	C323.896637,942.606079 326.826630,941.218506 329.118866,939.945129 
	C338.569275,934.695068 341.281616,925.366821 343.492889,915.901245 
	C344.256348,912.633118 345.498077,909.191467 344.265472,905.085144 
	C339.208466,911.469604 334.200867,917.345642 328.431030,922.580994 
	C322.408295,928.045959 315.304840,932.280701 307.680786,932.640320 
	C301.444672,932.934570 296.154449,934.214172 290.734283,936.734802 
	C288.600891,937.726990 286.381317,936.782593 285.193054,934.608948 
	C284.026581,932.475281 285.105896,930.762146 286.734375,929.349731 
	C300.514526,917.398682 304.242157,901.221313 305.730042,884.117126 
	C306.002136,880.989624 306.101196,877.845581 306.206299,874.706665 
	C306.220612,874.279297 305.803314,873.837463 305.536682,873.303833 
	C303.488464,874.013916 303.167267,876.011475 302.261261,877.455750 
	C295.865753,887.650696 286.908264,894.871582 276.198975,900.059082 
	C273.788757,901.226562 271.029694,902.530396 268.942322,899.789490 
	C266.704437,896.850952 268.809265,894.158264 270.671906,892.211243 
	C281.182892,881.224121 285.564850,867.439819 288.105133,853.085938 
	C290.764404,838.059875 291.342621,822.943787 283.689423,807.333008 
	C283.214600,817.396240 282.590668,826.202026 281.380768,834.954773 
	C280.135284,843.964966 275.524323,851.120422 269.815674,857.782288 
	C268.691254,859.094421 267.311859,860.164551 265.462372,859.241882 
	C263.327209,858.176880 263.646362,856.306030 264.172882,854.465271 
	C264.767822,852.385437 265.315613,850.286011 266.037140,848.249451 
	C275.091370,822.693115 270.025177,797.721924 262.937744,772.835449 
	C262.718384,772.065186 262.276001,771.358398 261.447723,769.556152 
	C260.064972,773.067627 258.973083,775.703491 257.984802,778.377747 
	C255.730438,784.478149 251.793640,789.389771 247.038055,793.660522 
	C244.778320,795.689880 242.044250,797.049500 238.895279,797.044189 
	C236.797516,797.040649 234.827927,796.388855 234.077316,794.191223 
	C233.366730,792.110840 234.559143,790.590820 236.261703,789.642822 
	C240.299759,787.394470 241.783127,783.512573 242.816391,779.441223 
	C245.374146,769.362610 246.412048,759.216187 244.811523,748.790833 
	C242.441605,733.354004 241.149841,717.737793 236.574768,702.694641 
	C235.832092,700.252686 234.873062,698.014587 232.784882,696.396729 
	C219.982254,686.477356 209.992310,674.084595 201.184616,660.562134 
	C202.885452,670.200378 204.986176,679.606812 213.096359,686.272339 
	C214.832687,687.699341 216.554611,689.376221 214.953674,691.757568 
	C213.523361,693.885071 211.351410,692.961365 209.486313,692.278198 
	C204.977554,690.626648 201.418045,687.693542 198.506104,683.908264 
	C186.984589,668.931091 180.461014,651.790405 176.739578,633.460876 
	C175.857941,629.118469 174.675140,624.819641 174.623947,620.327515 
	C173.186264,638.110046 173.138443,655.689880 181.560120,672.107971 
	C182.467667,673.877319 182.583328,675.726624 180.813095,677.070251 
	C178.970139,678.469116 177.342606,677.427979 175.848404,676.264709 
	C174.799347,675.448059 173.819031,674.543091 172.543747,673.426819 
M424.689636,848.765808 
	C441.087585,860.204407 457.431122,871.721313 474.309784,882.454529 
	C479.154633,885.535400 484.187469,888.039246 489.980164,888.560791 
	C501.774200,889.622742 513.588257,889.907776 525.430969,889.566467 
	C536.160889,889.257141 546.074585,886.774658 555.051575,880.544006 
	C562.710693,875.228027 570.781677,870.509644 578.586792,865.398987 
	C595.590881,854.265198 612.819336,843.444946 629.440125,831.762573 
	C648.036499,818.691589 663.669128,802.113586 680.238770,786.673889 
	C685.947998,781.354004 691.567261,775.932556 696.028320,769.357910 
	C707.431763,752.551636 713.193115,733.410645 719.634583,714.489563 
	C724.888428,699.056824 728.668152,683.129272 735.248840,668.139771 
	C737.046753,664.044617 739.957397,660.789185 744.104553,659.950989 
	C750.469727,658.664551 755.762756,656.492310 758.901367,650.418335 
	C759.605164,649.056274 761.130188,648.312622 762.766235,649.229126 
	C764.163940,650.012085 764.454651,651.513123 763.842468,652.722351 
	C759.511414,661.276733 757.460449,671.696899 745.979187,674.466187 
	C742.664490,675.265686 739.778687,676.962402 738.700928,680.626038 
	C737.198792,685.732422 735.779663,690.867981 734.098816,695.915771 
	C732.788635,699.850464 735.043518,701.044983 738.115723,701.723877 
	C741.859924,702.551392 742.809021,700.512817 742.657166,697.240112 
	C742.389526,691.471375 745.645508,688.018311 750.432373,685.520203 
	C755.975708,682.627319 761.020447,684.222229 765.739502,687.529480 
	C766.646484,686.467224 767.296997,685.911865 767.692139,685.212280 
	C776.293457,669.986084 784.978577,654.826111 789.753662,637.779968 
	C791.195190,632.634155 789.439270,630.280334 784.854004,628.960327 
	C781.998474,630.693787 781.513794,633.929443 779.809326,636.325623 
	C778.859924,637.660278 778.007080,639.507690 776.011414,638.971497 
	C773.754395,638.365112 774.629639,636.299255 774.629456,634.732422 
	C774.629333,634.072083 774.722534,633.393066 774.892456,632.754272 
	C776.768250,625.700867 777.094849,619.078735 770.723877,613.743896 
	C768.166565,611.602417 767.964355,607.347351 764.454773,605.877686 
	C762.512634,607.240662 762.569092,609.148315 762.284546,610.931335 
	C760.678223,620.995361 756.711121,630.071655 750.727356,638.281006 
	C748.432129,641.429871 745.457703,643.814819 741.959167,645.522095 
	C740.552368,646.208557 739.089417,646.487610 737.723816,645.397034 
	C736.206116,644.184937 735.936584,642.519714 736.633301,640.882751 
	C742.095581,628.047424 739.418884,615.015442 737.667664,602.004211 
	C737.296997,599.250061 736.488281,596.664062 734.629578,594.285156 
	C733.261597,596.090820 733.481384,597.806641 733.268005,599.434692 
	C732.076111,608.530762 730.537720,617.586182 727.229797,626.166809 
	C723.909668,634.778870 719.575378,642.886841 711.917236,648.536499 
	C709.661804,650.200317 706.662292,651.678345 704.226990,649.011414 
	C701.986633,646.557983 703.502319,643.874451 705.284363,641.820435 
	C710.308533,636.029907 711.470947,629.095642 711.696960,621.805359 
	C712.070557,609.759277 710.550476,597.872864 708.481567,586.060364 
	C708.026733,583.463501 708.703430,579.564636 705.463989,578.711792 
	C702.520691,577.936890 700.567383,581.067322 698.576599,582.993469 
	C693.751953,587.661438 692.195557,587.632324 688.624146,582.154297 
	C685.872314,577.933289 682.088013,575.086121 677.501343,573.243958 
	C672.340515,571.171204 670.873352,572.112549 670.368225,577.521729 
	C669.667480,585.026306 668.064392,592.351746 664.877441,599.186584 
	C658.702393,612.429932 648.038330,619.865173 633.602295,620.692688 
	C620.690063,621.432983 610.904236,615.083313 604.118347,604.267334 
	C599.800781,597.385620 597.667786,589.685547 596.759766,581.650269 
	C596.210571,576.791016 595.136780,576.067444 590.256348,577.189636 
	C586.620728,578.025574 583.468445,579.892517 580.207031,581.549744 
	C578.809326,582.259949 577.314331,582.687256 576.034668,581.442322 
	C574.650513,580.095764 574.788025,578.452759 575.571594,576.821228 
	C576.536499,574.812012 578.128479,573.348694 579.833984,571.992798 
	C584.969849,567.909973 590.614868,564.711304 596.854675,562.693298 
	C629.480347,552.142151 662.228210,551.484009 695.105103,561.570374 
	C697.057434,562.169312 699.282532,563.929565 701.150696,561.928589 
	C702.804199,560.157532 701.873047,557.753601 701.301880,555.718689 
	C698.006714,543.979553 693.240295,532.813110 688.220337,521.719788 
	C685.782349,516.332397 681.543823,518.617126 677.897766,518.547363 
	C674.377502,518.480042 672.804993,520.578491 672.201294,524.142517 
	C670.816284,532.319031 670.293335,540.708984 667.030701,548.482117 
	C666.196838,550.468811 665.195312,552.898193 662.549133,552.434937 
	C659.551514,551.910156 659.612244,549.171997 659.756714,546.814392 
	C660.175476,539.982666 660.029541,533.165222 659.749817,526.330139 
	C659.568787,521.906494 657.762512,520.035950 653.269958,520.289124 
	C637.808960,521.160522 622.376526,522.299622 607.002441,524.201355 
	C604.509644,524.509705 603.248657,525.826355 602.192627,527.928772 
	C599.127625,534.030762 595.973267,540.090881 592.712708,546.090698 
	C589.828430,551.398071 586.088318,556.090576 581.646973,560.184692 
	C580.022095,561.682556 578.073608,562.937012 575.796021,561.631775 
	C573.529907,560.333191 574.339600,558.151062 574.729553,556.229187 
	C575.556396,552.154297 576.820740,548.132812 577.238525,544.021667 
	C577.562805,540.830566 579.654846,537.557861 577.750244,534.099854 
	C575.718384,535.003784 575.207764,536.715759 574.401611,538.103271 
	C567.244141,550.422424 557.327881,559.765076 544.460999,565.892700 
	C540.395569,567.828796 536.159424,569.411682 531.591553,569.682434 
	C529.319336,569.817078 527.155640,569.309082 526.177307,566.954590 
	C525.101562,564.365356 526.836609,562.944031 528.727295,561.675842 
	C531.490723,559.822144 534.339600,558.102112 536.456543,555.414917 
	C543.294983,546.734314 549.225708,537.499512 553.462402,527.268982 
	C554.414856,524.969055 556.086792,522.661011 555.017761,519.148743 
	C552.598938,520.661133 550.524963,521.937988 548.470886,523.246338 
	C544.224182,525.951355 539.759521,528.214661 534.778931,529.124756 
	C532.271484,529.582825 529.467407,529.489441 528.417297,526.572998 
	C527.403076,523.756226 529.651550,522.230530 531.732178,521.164917 
	C536.979248,518.477478 540.605408,514.253906 543.663208,509.382233 
	C561.820740,480.453552 571.612854,449.441315 570.128906,414.764099 
	C569.085144,390.373474 560.516113,369.475586 546.235413,350.362518 
	C544.935791,348.623077 543.814331,346.336853 541.055847,346.608459 
	C539.821350,348.576233 540.232605,350.451050 540.558777,352.193298 
	C544.652832,374.058014 545.736206,396.114227 545.418030,418.321503 
	C545.061279,443.223053 540.510864,467.316742 532.096680,490.653992 
	C528.467041,500.721100 523.216187,510.034485 515.239624,517.517456 
	C511.854919,520.692688 507.811737,522.514282 503.389099,523.632996 
	C501.788879,524.037720 500.351593,523.674927 499.385345,522.322449 
	C498.332245,520.848389 498.985321,519.410706 499.959229,518.203796 
	C501.422485,516.390564 502.878601,514.535461 504.575378,512.952881 
	C511.468933,506.523163 515.705139,498.399170 519.015930,489.818817 
	C529.154236,463.543671 533.720154,436.256470 532.878601,408.118195 
	C532.548645,397.083618 531.638306,386.072784 527.770752,374.791229 
	C527.145569,376.127472 526.720520,376.691559 526.627563,377.305878 
	C526.429077,378.616425 526.362793,379.951477 526.311523,381.279144 
	C525.088623,412.952972 517.767822,443.191467 504.679230,472.015869 
	C496.482727,490.066772 485.200317,506.112579 471.976746,520.824341 
	C467.987244,525.262817 468.197327,526.304749 473.605377,529.215820 
	C475.504974,530.238342 477.354736,531.379700 479.115234,532.625122 
	C480.301697,533.464478 480.698700,534.783386 480.110168,536.185181 
	C479.568604,537.474976 478.374481,537.672913 477.167450,537.528198 
	C475.848969,537.370300 474.460266,537.275818 473.254547,536.781738 
	C463.971619,532.977966 455.359131,533.301331 447.565765,540.376648 
	C446.122345,541.687012 444.147644,542.428711 442.381897,543.364502 
	C437.062775,546.183411 431.609528,548.669067 425.530334,549.299805 
	C423.493378,549.511169 421.351013,549.429260 420.605316,546.967712 
	C419.954529,544.819519 421.378296,543.524109 422.972168,542.484314 
	C426.791840,539.992493 430.002350,536.930542 432.500580,533.076660 
	C434.423279,530.110718 433.479828,528.334961 430.380463,527.530151 
	C426.166046,526.435730 422.123932,525.778320 417.947876,528.538818 
	C414.521362,530.803894 410.510315,532.304504 406.597565,533.689819 
	C397.948242,536.752075 389.108307,539.132019 379.810089,538.809937 
	C377.812714,538.740784 375.638885,538.132996 375.253326,535.681091 
	C374.899414,533.430420 376.879059,532.712402 378.379974,531.660278 
	C381.130615,529.732117 384.804382,528.916992 386.352173,525.605225 
	C385.415314,523.438416 383.701538,523.346130 382.028625,523.268250 
	C374.547424,522.919983 367.057617,522.712708 359.585754,522.226501 
	C355.880707,521.985413 354.109283,523.537720 353.295746,527.035889 
	C351.524292,534.652954 349.480011,542.206421 347.677032,549.816589 
	C347.087463,552.305115 345.629669,554.729553 346.524078,557.620422 
	C347.666321,557.620422 348.687775,557.799988 349.624237,557.593689 
	C366.253326,553.931702 383.029205,554.103516 399.843262,555.711182 
	C416.024170,557.258362 431.944916,559.750549 445.684296,569.490662 
	C447.878082,571.045898 450.002899,572.640564 451.362152,575.015442 
	C452.418030,576.860168 452.870178,578.869995 451.331940,580.595337 
	C449.790192,582.324585 448.031830,581.499329 446.362915,580.515869 
	C442.745575,578.384460 438.728027,577.221802 434.813263,575.809265 
	C431.827057,574.731812 430.043915,575.620911 429.331726,578.810486 
	C428.352692,583.194885 427.608490,587.684998 426.087616,591.885071 
	C421.181305,605.434204 412.914093,616.307983 398.056458,619.025635 
	C382.806641,621.814941 368.332214,613.198303 361.804779,599.067932 
	C358.480316,591.871216 356.905334,584.270752 356.633148,576.336670 
	C356.463226,571.383301 355.450623,570.891235 350.738495,572.382202 
	C345.414673,574.066650 341.387695,577.246033 338.510559,582.070007 
	C335.633057,586.894592 333.635529,587.051636 329.621094,583.244263 
	C327.484955,581.218323 325.431030,578.982483 321.893646,578.796814 
	C318.381866,585.366455 315.072021,591.857788 313.308258,599.026855 
	C310.019745,612.393433 309.970612,626.114685 309.556396,639.709167 
	C309.248657,649.808594 310.398071,660.021301 315.566681,669.215454 
	C316.871338,671.536316 318.072327,673.921936 319.193604,676.336975 
	C319.911713,677.883606 320.370178,679.577393 318.719879,680.891907 
	C317.181885,682.117065 315.438019,681.774597 314.062561,680.778870 
	C312.052795,679.324036 310.070007,677.728760 308.434784,675.876465 
	C298.691437,664.839172 291.647858,652.301453 287.893188,638.005005 
	C287.397430,636.117310 287.023926,634.208618 285.635590,632.300415 
	C284.477844,635.679565 283.586792,638.704834 282.394897,641.606506 
	C281.631042,643.466187 280.401031,645.319763 277.971802,644.898865 
	C275.584320,644.485046 275.118652,642.458252 274.807587,640.371704 
	C272.662323,625.979736 268.720459,612.088318 263.018402,598.703491 
	C262.343170,597.118469 262.068970,595.051086 259.549133,594.840637 
	C259.186279,595.361389 258.647430,595.844360 258.467865,596.436218 
	C256.036530,604.450439 252.708359,612.049194 248.229584,619.142212 
	C246.984161,621.114563 247.326004,623.282471 247.737946,625.451477 
	C248.667892,630.348022 249.548065,635.254517 250.390778,640.166809 
	C250.671814,641.804932 251.069778,643.705627 248.924088,644.387268 
	C246.973495,645.006897 245.766525,643.587646 244.929382,642.117920 
	C243.612640,639.806030 242.566544,637.341003 241.270065,635.016541 
	C239.481964,631.810608 237.052231,631.640320 234.541809,634.360596 
	C232.798538,636.249512 233.115204,638.394897 233.816284,640.461182 
	C239.308945,656.648926 246.701538,671.869141 256.903503,685.664490 
	C258.622375,687.988831 260.243042,688.660522 263.212799,687.583496 
	C270.656006,684.884033 278.534088,688.133850 280.749176,694.573669 
	C281.485138,696.713318 281.540649,699.087036 281.938995,701.550354 
	C283.393158,701.711731 284.692474,701.972168 285.993347,701.980530 
	C292.236877,702.020630 293.464325,700.497009 291.636536,694.525330 
	C290.176483,689.755066 288.368713,685.091919 286.749573,680.369507 
	C285.221497,675.912598 282.071320,673.580200 277.428223,673.380859 
	C274.965912,673.275024 272.771301,672.711609 271.244171,670.700317 
	C267.402283,665.640503 264.184937,660.194275 261.765411,654.319458 
	C261.003113,652.468506 260.455444,650.195129 262.894257,649.101318 
	C265.111359,648.106934 266.264587,649.990845 267.188354,651.546692 
	C269.438660,655.336548 272.396576,657.721252 276.992828,658.358154 
	C282.584991,659.132996 286.691467,662.497864 289.703613,667.223816 
	C292.228577,671.185486 294.052185,675.441406 295.383820,679.945496 
	C299.961243,695.427917 304.427307,710.914612 312.030792,725.338074 
	C316.681305,734.159973 320.739716,743.342163 324.409698,752.621277 
	C329.672394,765.927429 337.468842,777.579773 348.058807,786.861023 
	C372.581848,808.353455 396.080597,831.170959 424.689636,848.765808 
M377.922424,466.131775 
	C377.024139,458.188629 376.125854,450.245483 375.206451,442.115448 
	C373.362701,442.851105 373.458496,443.972778 373.244690,444.906799 
	C371.133301,454.130249 369.463745,463.450134 366.045105,472.353180 
	C362.225800,482.299530 359.161072,492.491821 357.486572,503.051849 
	C356.543640,508.998627 357.014587,509.956207 362.954437,510.182434 
	C372.747070,510.555389 382.619080,509.801727 392.343628,510.724548 
	C401.361053,511.580261 408.209290,509.501343 413.097412,501.626953 
	C414.842041,498.816437 417.061401,496.267883 419.271088,493.783905 
	C439.113495,471.478638 446.875061,444.209717 451.723663,415.655334 
	C455.301758,394.583252 455.394531,373.277618 456.515869,352.038239 
	C456.657776,349.350281 457.255341,346.422211 455.251862,343.984192 
	C452.145874,344.497650 450.521149,346.745178 448.538544,348.442230 
	C438.263184,357.237640 430.731201,368.176758 424.168793,379.845367 
	C417.812073,391.148102 409.811493,401.837616 406.478455,414.420776 
	C401.548431,433.033051 397.527069,451.926910 396.859955,471.346497 
	C396.618988,478.361603 397.253693,485.284149 397.838898,492.231262 
	C398.015839,494.331757 398.001923,496.342438 395.850983,497.408356 
	C393.991119,498.330048 392.462463,497.363403 391.710297,495.741882 
	C387.246185,486.118134 380.358673,477.637543 377.922424,466.131775 
M620.330750,437.535492 
	C620.500916,447.846405 620.157776,458.113586 618.681030,468.353394 
	C616.900269,480.700439 614.514954,492.881531 610.777161,504.805389 
	C609.238220,509.714783 610.266846,511.197205 614.630432,510.719849 
	C627.026001,509.363861 639.413025,508.001068 651.891052,507.643890 
	C655.121643,507.551453 657.023499,505.752625 656.395325,502.473846 
	C654.553528,492.861298 653.643738,483.035400 650.412415,473.728333 
	C642.702881,451.523224 632.193970,430.568451 621.514221,409.699402 
	C620.760925,408.227325 620.412354,406.122314 617.200867,405.950958 
	C618.521423,416.274048 620.118286,426.360229 620.330750,437.535492 
M823.828125,296.687988 
	C824.774109,298.252960 825.719543,299.818207 826.666199,301.382812 
	C827.592346,302.913513 827.924072,304.837708 829.880432,306.346588 
	C825.627441,291.506439 822.807678,276.825134 813.598633,264.341888 
	C805.318665,253.118057 797.714233,241.370087 790.276306,229.560791 
	C786.015808,222.796387 780.592590,217.535263 773.677551,213.495331 
	C792.567566,239.645264 807.889526,267.920837 823.828125,296.687988 
M330.385071,555.725037 
	C329.990112,557.597656 328.474945,559.294495 329.528931,561.641785 
	C333.422546,562.024536 336.828186,560.776733 340.243469,558.684387 
	C337.558655,552.295288 341.646790,545.334595 337.631409,538.483704 
	C334.224304,544.034302 333.043579,549.796265 330.385071,555.725037 
M750.369507,696.758972 
	C749.269470,699.249817 748.147888,701.903259 751.144165,703.757690 
	C754.676392,705.943909 757.957275,704.081970 760.767334,702.131287 
	C763.819519,700.012451 762.859192,697.056274 761.418213,693.847778 
	C758.066284,696.172546 754.164734,694.467590 750.369507,696.758972 
M263.943329,694.989075 
	C260.998779,697.682922 260.010132,701.562561 262.325378,704.247009 
	C264.798981,707.115112 269.295135,706.227539 272.653412,705.046936 
	C275.348053,704.099670 275.451172,701.372070 274.006561,698.692993 
	C270.083832,699.348328 266.064178,700.456970 263.943329,694.989075 
M677.903442,494.623413 
	C677.010559,492.692902 677.132324,490.067871 673.909973,488.960022 
	C673.015198,494.280487 673.146545,499.173737 673.908142,504.085938 
	C674.283875,506.509094 675.910645,506.922211 677.955505,506.535889 
	C680.260559,506.100372 680.918213,504.657043 680.280334,502.492493 
	C679.577271,500.106873 678.883240,497.718536 677.903442,494.623413 
M550.781616,339.532379 
	C551.746704,340.286896 552.420227,341.762665 554.686340,340.595032 
	C550.657410,332.998871 544.761597,327.607483 538.004639,323.066864 
	C537.521118,323.516785 537.037659,323.966736 536.554138,324.416656 
	C541.142334,329.295959 545.730530,334.175293 550.781616,339.532379 
M468.623932,336.026306 
	C468.070099,335.351074 467.385651,335.342224 467.140259,336.141022 
	C465.056824,342.922852 465.214966,349.687927 467.683044,356.440460 
	C469.116455,349.891510 470.669342,343.367767 468.623932,336.026306 
z"/>
<path fill="#000000" opacity="1.000000" stroke="none" 
	d="
M510.005005,792.247253 
	C500.692291,792.617981 491.879242,793.005554 483.063751,793.325806 
	C481.238861,793.392090 479.383179,793.359192 477.580750,793.100281 
	C475.462982,792.795959 473.725006,791.648560 473.406891,789.390137 
	C473.081268,787.078430 474.531250,785.591064 476.548676,784.835144 
	C478.568604,784.078247 480.654358,783.383179 482.772827,783.020874 
	C503.813171,779.422302 524.876404,779.853821 545.942078,782.830078 
	C546.271423,782.876648 546.605957,782.925659 546.921143,783.026489 
	C550.034241,784.023254 554.244202,784.396912 553.550354,788.940186 
	C552.863342,793.438904 548.796570,792.679321 545.489502,792.639954 
	C533.827698,792.501038 522.165710,792.372620 510.005005,792.247253 
z"/>
<path fill="#000000" opacity="1.000000" stroke="none" 
	d="
M500.412415,687.522217 
	C500.904602,682.275208 501.153290,677.465698 501.746826,672.699219 
	C502.181946,669.204651 503.688599,665.909363 507.772369,666.011963 
	C511.844849,666.114319 513.048584,669.318726 513.387085,672.964355 
	C514.566162,685.661011 515.854797,698.347656 517.019165,711.045654 
	C517.278442,713.873108 517.406189,716.966675 514.452942,718.574646 
	C511.551727,720.154297 509.585754,717.551880 507.298187,716.387085 
	C499.927765,712.633667 497.121857,707.125427 499.478821,698.847595 
	C500.452972,695.426331 499.400269,691.568787 500.412415,687.522217 
z"/>
</svg>