<svg version="1.1" id="Layer_1" xmlns="http://www.w3.org/2000/svg" xmlns:xlink="http://www.w3.org/1999/xlink" x="0px" y="0px"
	 width="100%" viewBox="0 0 1361 1361" enable-background="new 0 0 1361 1361" xml:space="preserve">
<path fill="#FFFFFF" opacity="1.000000" stroke="none" 
	d="
M765.000000,1362.000000 
	C510.000000,1362.000000 255.500000,1362.000000 1.000000,1362.000000 
	C1.000000,908.333313 1.000000,454.666656 1.000000,1.000000 
	C454.666656,1.000000 908.333313,1.000000 1362.000000,1.000000 
	C1362.000000,454.666656 1362.000000,908.333313 1362.000000,1362.000000 
	C1163.166626,1362.000000 964.333313,1362.000000 765.000000,1362.000000 
M475.055542,1246.998169 
	C474.775177,1247.753540 474.494843,1248.508911 473.908752,1249.853394 
	C469.595825,1253.643188 465.282928,1257.433105 460.742279,1261.422974 
	C474.762543,1266.495117 487.856964,1259.620361 502.478058,1255.885376 
	C500.226349,1264.598022 498.172760,1272.544067 496.131287,1280.443237 
	C503.135406,1281.131958 507.537354,1278.220581 509.274750,1271.956543 
	C511.646545,1263.405518 514.450256,1254.855103 515.595947,1246.111450 
	C517.236511,1233.590698 517.793213,1220.906616 518.362061,1208.271973 
	C519.076294,1192.407715 519.574707,1176.524658 519.695679,1160.646118 
	C519.763184,1151.775513 518.843201,1142.899292 518.429504,1134.022705 
	C517.952942,1123.797241 517.677612,1113.560425 517.032288,1103.346313 
	C516.810486,1099.835938 515.891541,1096.340210 515.021606,1092.906128 
	C513.258850,1085.947998 511.312164,1079.036377 509.419769,1072.025757 
	C521.343506,1081.492798 533.166687,1090.983521 545.109070,1100.321899 
	C551.906433,1105.636963 558.819885,1110.812256 565.824585,1115.851074 
	C573.079834,1121.070068 580.433655,1126.160767 587.878052,1131.106201 
	C600.724121,1139.640381 613.427856,1148.428589 626.643677,1156.356079 
	C642.375366,1165.792603 659.752563,1169.624390 678.089600,1168.842651 
	C685.814880,1168.513184 693.527771,1167.893677 701.253113,1167.567017 
	C710.960083,1167.156494 720.215271,1164.568237 728.624146,1160.109009 
	C739.632935,1154.270752 750.363159,1147.783813 760.675964,1140.784302 
	C778.386353,1128.763916 795.870911,1116.387939 813.083801,1103.665405 
	C824.751953,1095.041138 835.770142,1085.539551 847.133850,1076.499390 
	C849.435913,1074.667969 851.984192,1073.146240 855.080811,1071.029175 
	C853.662781,1080.403687 852.183044,1088.654175 851.211121,1096.963989 
	C849.694214,1109.932739 847.818176,1122.919067 847.398438,1135.940063 
	C846.968201,1149.284912 848.041870,1162.682739 848.583130,1176.052368 
	C848.875793,1183.283325 849.396790,1190.505737 849.875000,1197.728149 
	C850.742615,1210.831909 851.418518,1223.954712 852.621887,1237.028198 
	C853.635376,1248.037598 855.014587,1259.031616 856.754395,1269.948975 
	C857.763428,1276.280640 860.614502,1278.252319 865.814453,1277.173706 
	C865.814453,1272.336304 865.814453,1267.355103 865.814453,1261.871582 
	C883.386719,1277.572266 896.886902,1278.362915 906.676392,1272.485962 
	C885.629272,1262.656616 871.276489,1246.260254 873.651062,1233.390747 
	C878.591614,1241.170532 885.271118,1245.714600 893.528809,1246.977783 
	C901.541992,1248.203613 909.504333,1247.378296 916.851440,1242.478516 
	C895.500793,1236.492798 878.365601,1218.181030 879.502075,1201.812500 
	C884.236816,1211.807373 891.175537,1218.900391 899.794678,1224.093750 
	C908.223877,1229.172607 917.043579,1233.719116 928.431152,1230.976807 
	C911.780640,1215.308716 906.736511,1195.654663 904.929077,1174.704346 
	C905.843018,1176.062988 906.602844,1177.525757 906.905273,1179.077637 
	C910.784546,1198.987915 921.682190,1214.684204 936.434448,1227.973267 
	C943.806091,1234.613770 954.439148,1236.630493 961.208191,1232.967773 
	C960.428406,1232.268555 959.788635,1231.553955 959.020264,1231.027100 
	C948.518311,1223.824951 940.838745,1214.361450 937.670410,1201.979736 
	C934.973694,1191.440796 932.960938,1180.694580 931.277344,1169.941040 
	C930.274414,1163.535645 930.491028,1156.939209 930.094666,1149.158936 
	C931.480103,1150.661621 932.008911,1151.040283 932.277039,1151.554810 
	C937.801392,1162.156494 946.711731,1169.278198 956.858398,1174.926392 
	C964.628601,1179.251709 972.817749,1181.711426 980.844177,1177.969727 
	C974.211243,1169.892700 966.883301,1162.588379 961.544861,1154.041382 
	C955.459412,1144.298096 953.835083,1131.434814 955.549500,1124.393066 
	C960.942078,1137.239624 967.211670,1145.442749 978.238037,1153.814209 
	C983.390930,1157.726440 989.203552,1159.350342 995.594482,1157.816528 
	C996.853088,1157.514282 998.590515,1156.353394 998.794922,1155.327026 
	C998.993591,1154.329712 997.683899,1152.824341 996.728760,1151.841064 
	C992.810181,1147.807373 988.361450,1144.220337 984.854858,1139.867065 
	C971.641113,1123.463135 968.542725,1103.694702 968.522522,1083.644653 
	C968.507690,1068.963745 970.825500,1054.255859 972.546448,1039.611938 
	C973.130737,1034.639893 975.067993,1029.826782 976.387024,1024.941040 
	C978.045593,1038.120239 978.862854,1051.011719 980.220398,1063.845825 
	C981.882507,1079.560425 985.710693,1094.838745 992.596375,1109.070435 
	C996.206970,1116.533081 999.865967,1124.691772 1009.411133,1126.817627 
	C1010.604614,1127.083496 1011.908325,1126.854004 1012.446899,1126.854004 
	C1008.901733,1118.698120 1004.957336,1111.237183 1002.352844,1103.334595 
	C993.998718,1077.986084 993.749512,1051.895630 998.142456,1025.956299 
	C1000.695557,1010.880920 1005.711609,996.212158 1009.812561,981.413940 
	C1011.637695,974.828247 1013.939453,968.374573 1016.024841,961.860901 
	C1017.187073,962.665955 1017.497681,963.372375 1017.589478,964.106262 
	C1018.492188,971.320679 1018.685791,978.702454 1020.383789,985.721497 
	C1023.351013,997.987122 1029.203491,1008.639771 1041.114136,1014.661987 
	C1042.656494,1015.441772 1044.540527,1015.546143 1047.575073,1016.279724 
	C1046.049438,1013.267700 1045.353149,1011.611633 1044.422607,1010.099854 
	C1035.907104,996.266541 1035.273560,980.978760 1039.481323,966.286987 
	C1045.378540,945.695740 1053.381836,925.703125 1060.686646,905.527710 
	C1061.318726,903.782104 1063.284912,901.576050 1064.927124,901.291687 
	C1076.204956,899.338867 1084.367310,892.697083 1090.678345,883.893311 
	C1103.836914,865.537292 1112.119019,844.797485 1118.758057,823.360535 
	C1120.190796,818.734436 1121.362793,814.027649 1122.655029,809.358032 
	C1122.819092,831.921265 1121.303223,854.045837 1108.133911,874.360107 
	C1117.850342,872.615723 1123.075562,867.173828 1126.768555,860.035706 
	C1138.092407,838.148682 1150.144775,816.535645 1153.822510,791.618774 
	C1155.873779,777.720947 1158.192993,763.855835 1159.878662,749.913940 
	C1160.595459,743.985840 1159.998413,737.898804 1159.998413,730.691956 
	C1177.725586,745.890198 1196.957397,741.053223 1215.679077,739.984558 
	C1216.245361,739.231018 1216.811523,738.477478 1217.377808,737.723938 
	C1215.771973,736.901978 1213.890869,736.378418 1212.613647,735.200256 
	C1209.215698,732.066162 1205.580322,729.006226 1202.917603,725.287903 
	C1185.755249,701.321899 1177.334351,673.861206 1172.145386,645.309753 
	C1168.177124,623.473755 1165.465088,601.405945 1161.338135,579.603394 
	C1157.342896,558.496521 1153.255493,537.314453 1147.437012,516.664612 
	C1135.331787,473.704193 1122.272217,431.007324 1109.191772,388.328766 
	C1098.714355,354.143799 1083.171265,322.208801 1065.028687,291.445892 
	C1048.326660,263.125366 1028.391846,237.309479 1006.029297,213.309601 
	C978.196716,183.439316 949.139526,154.978439 914.339600,133.023102 
	C886.013794,115.152313 855.267944,103.884666 822.095581,100.079865 
	C801.949951,97.769211 781.676025,97.861832 761.388733,100.746819 
	C744.932190,103.087029 729.243408,106.516808 715.917236,117.962723 
	C710.734436,102.181511 700.654846,90.654083 686.732239,82.480888 
	C673.230713,74.554878 659.149902,68.323868 642.913696,69.196213 
	C650.830261,74.488922 659.335266,78.476273 667.305054,83.340591 
	C675.215942,88.168945 683.005005,93.457184 687.020630,102.517212 
	C683.661438,101.063347 680.753723,98.997154 677.655457,97.273643 
	C648.434387,81.018707 616.815369,73.013687 583.683655,70.920441 
	C566.686584,69.846565 550.049011,72.818268 533.477295,76.922523 
	C491.391388,87.345764 453.783417,106.607178 420.184601,133.641342 
	C389.330505,158.467056 362.363281,187.231873 337.916321,218.340591 
	C311.456696,252.010376 286.211975,286.569122 265.292358,324.011902 
	C248.088043,354.804932 231.576981,385.987427 214.951279,417.100220 
	C210.426819,425.567139 206.405792,434.322235 202.572678,443.127441 
	C201.464706,445.672607 200.829880,449.260132 201.804031,451.614166 
	C202.602280,453.543091 210.005508,450.374298 212.116211,447.069183 
	C213.181992,445.400269 214.101974,443.633514 215.017746,441.874481 
	C217.383362,437.330505 219.635025,432.725861 222.064423,428.216675 
	C236.926285,400.631348 254.733688,375.049072 274.782349,351.005859 
	C275.666382,349.945709 277.033813,349.288574 278.176086,348.443726 
	C278.489044,348.750244 278.802032,349.056732 279.114990,349.363220 
	C275.624542,355.806335 272.304199,362.348663 268.613983,368.675232 
	C253.199829,395.101532 241.408005,423.192139 232.102631,452.189697 
	C223.639969,478.561218 216.498001,505.385620 209.645447,532.232849 
	C206.054001,546.303528 203.723068,560.774902 201.907990,575.201904 
	C199.006821,598.261719 199.885742,621.419678 203.323013,644.364990 
	C206.016174,662.343140 204.319702,680.042419 199.654907,697.184204 
	C192.800385,722.372620 183.853058,746.848328 163.205292,764.808777 
	C162.418777,765.492981 162.121246,766.739258 161.595810,767.723572 
	C162.695450,768.251221 163.745163,769.052795 164.902512,769.263855 
	C175.290909,771.157471 185.315659,768.655090 195.090210,765.828552 
	C202.860291,763.581604 210.224991,759.932922 217.299774,757.094971 
	C217.299774,761.866028 217.058044,767.036987 217.348068,772.177979 
	C218.038757,784.421509 218.200165,796.768372 220.021072,808.855713 
	C222.241058,823.592041 229.758713,836.551086 236.586624,849.596069 
	C241.157715,858.329346 246.353500,866.764954 255.245941,871.792053 
	C258.590546,873.682861 262.582855,874.427917 266.279877,875.695374 
	C266.814911,875.048828 267.349945,874.402344 267.884979,873.755859 
	C256.360657,862.854553 249.524994,849.663940 246.708710,834.358765 
	C243.384155,816.291382 243.093735,792.326416 246.113083,789.810608 
	C247.258072,795.431824 248.108078,801.345825 249.687729,807.058105 
	C256.497284,831.682800 264.564514,855.845642 279.051056,877.227844 
	C284.019073,884.560669 290.031219,891.133972 299.005463,893.746338 
	C300.657898,894.227356 302.642303,893.567810 304.545074,893.429504 
	C298.100311,884.109070 291.455078,876.124756 286.636353,867.158813 
	C278.896240,852.757202 276.899994,842.983276 278.534271,839.515015 
	C284.285248,847.415588 290.139191,855.761047 296.320282,863.856812 
	C301.641876,870.826538 309.065643,876.732666 312.548859,884.465454 
	C323.973572,909.828186 331.470856,936.436584 332.380981,964.526184 
	C332.972076,982.768982 331.090576,1000.390808 319.144684,1015.393311 
	C318.934387,1015.657349 319.194305,1016.295837 319.340668,1017.973328 
	C334.930450,1013.337952 349.332458,1008.085510 357.245697,992.003418 
	C357.862640,993.055786 358.511627,993.772644 358.737213,994.604370 
	C365.024414,1017.787781 369.336151,1041.285156 367.884033,1065.411011 
	C367.084747,1078.690063 365.179626,1091.890137 357.240234,1103.282227 
	C356.741943,1103.997314 356.575714,1104.943848 355.816986,1106.928467 
	C358.912720,1106.044922 361.568024,1106.035278 363.049286,1104.711792 
	C366.336731,1101.774658 369.830780,1098.594238 371.826538,1094.774292 
	C378.050568,1082.861572 380.805267,1069.884277 381.204620,1056.499878 
	C381.508911,1046.300903 381.265045,1036.085449 381.265045,1027.006836 
	C381.016663,1026.307739 381.202576,1026.886353 381.425537,1027.450439 
	C387.919067,1043.877563 388.535553,1061.444946 390.325317,1078.620117 
	C391.405762,1088.988525 389.828125,1099.929199 387.728363,1110.264038 
	C384.592560,1125.698120 378.599701,1140.108032 365.937469,1150.612671 
	C364.063629,1152.167114 361.838348,1153.298096 359.516571,1154.791748 
	C364.190063,1159.155029 367.594879,1158.713623 370.839417,1157.335449 
	C383.460388,1151.974487 392.965363,1142.708496 400.812134,1131.849976 
	C405.379303,1125.529785 408.768494,1118.358276 413.372253,1110.384033 
	C420.376129,1150.225708 413.675873,1184.320435 381.351654,1210.743530 
	C414.675812,1215.836792 438.890167,1204.292236 453.714050,1173.789185 
	C455.053101,1195.375244 451.375214,1214.736694 432.021667,1228.217896 
	C444.548737,1229.100342 453.202972,1223.088257 461.509399,1214.757080 
	C461.439758,1216.953979 461.370087,1219.150757 461.215332,1222.043457 
	C457.213684,1226.748657 453.212036,1231.453857 448.554718,1236.133789 
	C447.873352,1236.849854 447.191986,1237.566040 446.510620,1238.282104 
	C447.321747,1238.664795 448.132904,1239.047363 449.873260,1239.407104 
	C453.597260,1239.389160 457.321289,1239.371094 461.485748,1239.812622 
	C462.693146,1239.296387 463.900513,1238.780151 465.729431,1238.107178 
	C466.155884,1238.096191 466.582306,1238.085205 467.348328,1238.457153 
	C467.933411,1238.051880 468.518524,1237.646606 469.761658,1236.944702 
	C472.397583,1235.529541 475.033478,1234.114502 478.226227,1233.020874 
	C478.776306,1233.344482 479.326385,1233.668213 479.912201,1234.714966 
	C479.816406,1235.430786 479.720642,1236.146606 478.972412,1237.073975 
	C478.846832,1237.887451 478.721252,1238.701050 478.571136,1240.243408 
	C477.618134,1242.456421 476.665131,1244.669434 475.055542,1246.998169 
z"/>
<path fill="#010101" opacity="1.000000" stroke="none" 
	d="
M460.780762,1214.825195 
	C453.202972,1223.088257 444.548737,1229.100342 432.021667,1228.217896 
	C451.375214,1214.736694 455.053101,1195.375244 453.714050,1173.789185 
	C438.890167,1204.292236 414.675812,1215.836792 381.351654,1210.743530 
	C413.675873,1184.320435 420.376129,1150.225708 413.372253,1110.384033 
	C408.768494,1118.358276 405.379303,1125.529785 400.812134,1131.849976 
	C392.965363,1142.708496 383.460388,1151.974487 370.839417,1157.335449 
	C367.594879,1158.713623 364.190063,1159.155029 359.516571,1154.791748 
	C361.838348,1153.298096 364.063629,1152.167114 365.937469,1150.612671 
	C378.599701,1140.108032 384.592560,1125.698120 387.728363,1110.264038 
	C389.828125,1099.929199 391.405762,1088.988525 390.325317,1078.620117 
	C388.535553,1061.444946 387.919067,1043.877563 381.425537,1027.450439 
	C381.202576,1026.886353 381.016663,1026.307739 381.265045,1027.006836 
	C381.265045,1036.085449 381.508911,1046.300903 381.204620,1056.499878 
	C380.805267,1069.884277 378.050568,1082.861572 371.826538,1094.774292 
	C369.830780,1098.594238 366.336731,1101.774658 363.049286,1104.711792 
	C361.568024,1106.035278 358.912720,1106.044922 355.816986,1106.928467 
	C356.575714,1104.943848 356.741943,1103.997314 357.240234,1103.282227 
	C365.179626,1091.890137 367.084747,1078.690063 367.884033,1065.411011 
	C369.336151,1041.285156 365.024414,1017.787781 358.737213,994.604370 
	C358.511627,993.772644 357.862640,993.055786 357.245697,992.003418 
	C349.332458,1008.085510 334.930450,1013.337952 319.340668,1017.973328 
	C319.194305,1016.295837 318.934387,1015.657349 319.144684,1015.393311 
	C331.090576,1000.390808 332.972076,982.768982 332.380981,964.526184 
	C331.470856,936.436584 323.973572,909.828186 312.548859,884.465454 
	C309.065643,876.732666 301.641876,870.826538 296.320282,863.856812 
	C290.139191,855.761047 284.285248,847.415588 278.534271,839.515015 
	C276.899994,842.983276 278.896240,852.757202 286.636353,867.158813 
	C291.455078,876.124756 298.100311,884.109070 304.545074,893.429504 
	C302.642303,893.567810 300.657898,894.227356 299.005463,893.746338 
	C290.031219,891.133972 284.019073,884.560669 279.051056,877.227844 
	C264.564514,855.845642 256.497284,831.682800 249.687729,807.058105 
	C248.108078,801.345825 247.258072,795.431824 246.113083,789.810608 
	C243.093735,792.326416 243.384155,816.291382 246.708710,834.358765 
	C249.524994,849.663940 256.360657,862.854553 267.884979,873.755859 
	C267.349945,874.402344 266.814911,875.048828 266.279877,875.695374 
	C262.582855,874.427917 258.590546,873.682861 255.245941,871.792053 
	C246.353500,866.764954 241.157715,858.329346 236.586624,849.596069 
	C229.758713,836.551086 222.241058,823.592041 220.021072,808.855713 
	C218.200165,796.768372 218.038757,784.421509 217.348068,772.177979 
	C217.058044,767.036987 217.299774,761.866028 217.299774,757.094971 
	C210.224991,759.932922 202.860291,763.581604 195.090210,765.828552 
	C185.315659,768.655090 175.290909,771.157471 164.902512,769.263855 
	C163.745163,769.052795 162.695450,768.251221 161.595825,767.723572 
	C162.121246,766.739258 162.418777,765.492981 163.205292,764.808777 
	C183.853058,746.848328 192.800385,722.372620 199.654907,697.184204 
	C204.319702,680.042419 206.016174,662.343140 203.323013,644.364990 
	C199.885742,621.419678 199.006821,598.261719 201.907990,575.201904 
	C203.723068,560.774902 206.054001,546.303528 209.645447,532.232849 
	C216.498001,505.385620 223.639969,478.561218 232.102631,452.189697 
	C241.408005,423.192139 253.199829,395.101532 268.613983,368.675232 
	C272.304199,362.348663 275.624542,355.806335 279.114990,349.363220 
	C278.802032,349.056732 278.489044,348.750244 278.176086,348.443726 
	C277.033813,349.288574 275.666382,349.945709 274.782349,351.005859 
	C254.733688,375.049072 236.926285,400.631348 222.064423,428.216675 
	C219.635025,432.725861 217.383362,437.330505 215.017746,441.874481 
	C214.101974,443.633514 213.181992,445.400269 212.116211,447.069183 
	C210.005508,450.374298 202.602280,453.543091 201.804031,451.614166 
	C200.829880,449.260132 201.464706,445.672607 202.572678,443.127441 
	C206.405792,434.322235 210.426819,425.567139 214.951279,417.100220 
	C231.576981,385.987427 248.088043,354.804932 265.292358,324.011902 
	C286.211975,286.569122 311.456696,252.010376 337.916321,218.340591 
	C362.363281,187.231873 389.330505,158.467056 420.184601,133.641342 
	C453.783417,106.607178 491.391388,87.345764 533.477295,76.922523 
	C550.049011,72.818268 566.686584,69.846565 583.683655,70.920441 
	C616.815369,73.013687 648.434387,81.018707 677.655457,97.273643 
	C680.753723,98.997154 683.661438,101.063347 687.020630,102.517212 
	C683.005005,93.457184 675.215942,88.168945 667.305054,83.340591 
	C659.335266,78.476273 650.830261,74.488922 642.913696,69.196213 
	C659.149902,68.323868 673.230713,74.554878 686.732239,82.480888 
	C700.654846,90.654083 710.734436,102.181511 715.917236,117.962723 
	C729.243408,106.516808 744.932190,103.087029 761.388733,100.746819 
	C781.676025,97.861832 801.949951,97.769211 822.095581,100.079865 
	C855.267944,103.884666 886.013794,115.152313 914.339600,133.023102 
	C949.139526,154.978439 978.196716,183.439316 1006.029297,213.309601 
	C1028.391846,237.309479 1048.326660,263.125366 1065.028687,291.445892 
	C1083.171265,322.208801 1098.714355,354.143799 1109.191772,388.328766 
	C1122.272217,431.007324 1135.331787,473.704193 1147.437012,516.664612 
	C1153.255493,537.314453 1157.342896,558.496521 1161.338135,579.603394 
	C1165.465088,601.405945 1168.177124,623.473755 1172.145386,645.309753 
	C1177.334351,673.861206 1185.755249,701.321899 1202.917603,725.287903 
	C1205.580322,729.006226 1209.215698,732.066162 1212.613647,735.200256 
	C1213.890869,736.378418 1215.771973,736.901978 1217.377808,737.723938 
	C1216.811523,738.477478 1216.245361,739.231018 1215.679077,739.984558 
	C1196.957397,741.053223 1177.725586,745.890198 1159.998413,730.691956 
	C1159.998413,737.898804 1160.595459,743.985840 1159.878662,749.913940 
	C1158.192993,763.855835 1155.873779,777.720947 1153.822510,791.618774 
	C1150.144775,816.535645 1138.092407,838.148682 1126.768555,860.035706 
	C1123.075562,867.173828 1117.850342,872.615723 1108.133911,874.360107 
	C1121.303223,854.045837 1122.819092,831.921265 1122.655029,809.358032 
	C1121.362793,814.027649 1120.190796,818.734436 1118.758057,823.360535 
	C1112.119019,844.797485 1103.836914,865.537292 1090.678345,883.893311 
	C1084.367310,892.697083 1076.204956,899.338867 1064.927124,901.291687 
	C1063.284912,901.576050 1061.318726,903.782104 1060.686646,905.527710 
	C1053.381836,925.703125 1045.378540,945.695740 1039.481323,966.286987 
	C1035.273560,980.978760 1035.907104,996.266541 1044.422607,1010.099854 
	C1045.353149,1011.611633 1046.049438,1013.267700 1047.575073,1016.279724 
	C1044.540527,1015.546143 1042.656494,1015.441772 1041.114136,1014.661987 
	C1029.203491,1008.639771 1023.351013,997.987122 1020.383789,985.721497 
	C1018.685791,978.702454 1018.492188,971.320679 1017.589478,964.106262 
	C1017.497681,963.372375 1017.187073,962.665955 1016.024841,961.860901 
	C1013.939453,968.374573 1011.637695,974.828247 1009.812561,981.413940 
	C1005.711609,996.212158 1000.695557,1010.880920 998.142456,1025.956299 
	C993.749512,1051.895630 993.998718,1077.986084 1002.352844,1103.334595 
	C1004.957336,1111.237183 1008.901733,1118.698120 1012.446899,1126.854004 
	C1011.908325,1126.854004 1010.604614,1127.083496 1009.411133,1126.817627 
	C999.865967,1124.691772 996.206970,1116.533081 992.596375,1109.070435 
	C985.710693,1094.838745 981.882507,1079.560425 980.220398,1063.845825 
	C978.862854,1051.011719 978.045593,1038.120239 976.387024,1024.941040 
	C975.067993,1029.826782 973.130737,1034.639893 972.546448,1039.611938 
	C970.825500,1054.255859 968.507690,1068.963745 968.522522,1083.644653 
	C968.542725,1103.694702 971.641113,1123.463135 984.854858,1139.867065 
	C988.361450,1144.220337 992.810181,1147.807373 996.728760,1151.841064 
	C997.683899,1152.824341 998.993591,1154.329712 998.794922,1155.327026 
	C998.590515,1156.353394 996.853088,1157.514282 995.594482,1157.816528 
	C989.203552,1159.350342 983.390930,1157.726440 978.238037,1153.814209 
	C967.211670,1145.442749 960.942078,1137.239624 955.549500,1124.393066 
	C953.835083,1131.434814 955.459412,1144.298096 961.544861,1154.041382 
	C966.883301,1162.588379 974.211243,1169.892700 980.844177,1177.969727 
	C972.817749,1181.711426 964.628601,1179.251709 956.858398,1174.926392 
	C946.711731,1169.278198 937.801392,1162.156494 932.277039,1151.554810 
	C932.008911,1151.040283 931.480103,1150.661621 930.094666,1149.158936 
	C930.491028,1156.939209 930.274414,1163.535645 931.277344,1169.941040 
	C932.960938,1180.694580 934.973694,1191.440796 937.670410,1201.979736 
	C940.838745,1214.361450 948.518311,1223.824951 959.020264,1231.027100 
	C959.788635,1231.553955 960.428406,1232.268555 961.208191,1232.967773 
	C954.439148,1236.630493 943.806091,1234.613770 936.434448,1227.973267 
	C921.682190,1214.684204 910.784546,1198.987915 906.905273,1179.077637 
	C906.602844,1177.525757 905.843018,1176.062988 904.929077,1174.704346 
	C906.736511,1195.654663 911.780640,1215.308716 928.431152,1230.976807 
	C917.043579,1233.719116 908.223877,1229.172607 899.794678,1224.093750 
	C891.175537,1218.900391 884.236816,1211.807373 879.502075,1201.812500 
	C878.365601,1218.181030 895.500793,1236.492798 916.851440,1242.478516 
	C909.504333,1247.378296 901.541992,1248.203613 893.528809,1246.977783 
	C885.271118,1245.714600 878.591614,1241.170532 873.651062,1233.390747 
	C871.276489,1246.260254 885.629272,1262.656616 906.676392,1272.485962 
	C896.886902,1278.362915 883.386719,1277.572266 865.814453,1261.871582 
	C865.814453,1267.355103 865.814453,1272.336304 865.814453,1277.173706 
	C860.614502,1278.252319 857.763428,1276.280640 856.754395,1269.948975 
	C855.014587,1259.031616 853.635376,1248.037598 852.621887,1237.028198 
	C851.418518,1223.954712 850.742615,1210.831909 849.875000,1197.728149 
	C849.396790,1190.505737 848.875793,1183.283325 848.583130,1176.052368 
	C848.041870,1162.682739 846.968201,1149.284912 847.398438,1135.940063 
	C847.818176,1122.919067 849.694214,1109.932739 851.211121,1096.963989 
	C852.183044,1088.654175 853.662781,1080.403687 855.080811,1071.029175 
	C851.984192,1073.146240 849.435913,1074.667969 847.133850,1076.499390 
	C835.770142,1085.539551 824.751953,1095.041138 813.083801,1103.665405 
	C795.870911,1116.387939 778.386353,1128.763916 760.675964,1140.784302 
	C750.363159,1147.783813 739.632935,1154.270752 728.624146,1160.109009 
	C720.215271,1164.568237 710.960083,1167.156494 701.253113,1167.567017 
	C693.527771,1167.893677 685.814880,1168.513184 678.089600,1168.842651 
	C659.752563,1169.624390 642.375366,1165.792603 626.643677,1156.356079 
	C613.427856,1148.428589 600.724121,1139.640381 587.878052,1131.106201 
	C580.433655,1126.160767 573.079834,1121.070068 565.824585,1115.851074 
	C558.819885,1110.812256 551.906433,1105.636963 545.109070,1100.321899 
	C533.166687,1090.983521 521.343506,1081.492798 509.419769,1072.025757 
	C511.312164,1079.036377 513.258850,1085.947998 515.021606,1092.906128 
	C515.891541,1096.340210 516.810486,1099.835938 517.032288,1103.346313 
	C517.677612,1113.560425 517.952942,1123.797241 518.429504,1134.022705 
	C518.843201,1142.899292 519.763184,1151.775513 519.695679,1160.646118 
	C519.574707,1176.524658 519.076294,1192.407715 518.362061,1208.271973 
	C517.793213,1220.906616 517.236511,1233.590698 515.595947,1246.111450 
	C514.450256,1254.855103 511.646545,1263.405518 509.274750,1271.956543 
	C507.537354,1278.220581 503.135406,1281.131958 496.131287,1280.443237 
	C498.172760,1272.544067 500.226349,1264.598022 502.478058,1255.885376 
	C487.856964,1259.620361 474.762543,1266.495117 460.742279,1261.422974 
	C465.282928,1257.433105 469.595825,1253.643188 474.344360,1249.442871 
	C475.090698,1248.315674 475.401398,1247.599121 475.712128,1246.882446 
	C476.665131,1244.669434 477.618134,1242.456421 478.845520,1239.708008 
	C479.288177,1238.402466 479.456482,1237.632446 479.624817,1236.862427 
	C479.720642,1236.146606 479.816406,1235.430786 480.089417,1234.110962 
	C480.660522,1232.258423 481.054443,1231.009766 481.448364,1229.761230 
	C481.138672,1229.594849 480.828979,1229.428467 480.519287,1229.262085 
	C479.569336,1230.407837 478.619354,1231.553589 477.669373,1232.699463 
	C475.033478,1234.114502 472.397583,1235.529541 469.139343,1237.024048 
	C468.014313,1237.427002 467.511566,1237.750610 467.008789,1238.074219 
	C466.582306,1238.085205 466.155884,1238.096191 465.061157,1238.095215 
	C463.277008,1238.506470 462.161133,1238.929810 461.045288,1239.353027 
	C457.321289,1239.371094 453.597260,1239.389160 449.179291,1239.029663 
	C448.726990,1237.821167 448.968658,1236.990112 449.210358,1236.159058 
	C453.212036,1231.453857 457.213684,1226.748657 461.583008,1221.552002 
	C463.651886,1216.402100 465.353088,1211.743408 467.054291,1207.084839 
	C466.543762,1206.891602 466.033234,1206.698364 465.522705,1206.505127 
	C463.942078,1209.278564 462.361420,1212.051880 460.780762,1214.825195 
M315.054932,823.041077 
	C314.533264,819.430054 314.011597,815.818970 313.489929,812.207947 
	C312.816559,812.311462 312.143158,812.414978 311.469788,812.518555 
	C312.021759,816.401123 312.573730,820.283630 313.337616,825.024109 
	C315.172607,831.517578 316.303528,838.318115 318.976746,844.445923 
	C326.505890,861.705017 337.936859,876.555542 349.413025,891.319397 
	C350.926361,893.266113 352.564056,895.116150 354.541077,897.487000 
	C355.262238,887.321228 362.791321,883.968750 370.884216,888.523254 
	C376.524994,891.697815 375.990051,896.323792 375.995972,901.204346 
	C376.005402,908.937256 378.141907,912.197510 385.277496,915.251831 
	C392.232422,918.228821 396.703247,915.719727 395.849609,908.420776 
	C394.534546,897.176147 390.671722,886.466064 382.671722,878.287231 
	C378.374146,873.893494 372.260468,871.221130 366.816437,868.027344 
	C364.144379,866.459717 362.089233,864.708069 362.848663,861.437439 
	C363.607300,858.170349 365.729767,856.082947 369.329376,856.019653 
	C371.466278,855.982117 373.604401,856.012817 375.980591,856.012817 
	C371.503571,843.045288 367.188141,830.545898 363.164948,818.892883 
	C362.678680,821.116516 361.972382,824.346497 361.266083,827.576477 
	C357.934387,806.145508 355.039948,785.121765 344.982117,765.453369 
	C344.072296,766.921143 343.324310,767.776672 342.957794,768.772644 
	C338.631744,780.529236 334.360809,792.306152 330.084259,804.080872 
	C329.872253,804.664612 329.453979,805.372620 329.615814,805.863098 
	C332.333496,814.101990 334.640533,822.524414 338.047180,830.473938 
	C341.265015,837.982849 345.656952,844.988586 349.532440,852.215698 
	C336.058105,845.569519 330.286652,833.053528 325.059601,820.569275 
	C323.508026,824.314880 322.133453,827.633179 320.758881,830.951477 
	C320.265320,830.994141 319.771759,831.036804 319.278168,831.079468 
	C317.893005,828.692871 316.507812,826.306335 315.054932,823.041077 
M839.239807,1065.670288 
	C844.153564,1061.629517 849.114746,1057.644897 853.971497,1053.536743 
	C865.966125,1043.391235 878.159058,1033.460449 889.785400,1022.906921 
	C896.607788,1016.713989 902.923279,1009.835022 908.691284,1002.642700 
	C914.860657,994.950012 920.808228,986.910583 925.593872,978.321228 
	C931.161011,968.329285 935.683228,957.709229 940.073242,947.119019 
	C945.381653,934.313477 950.214417,921.304260 954.999939,908.290222 
	C960.568481,893.147278 963.804443,877.087952 972.320251,863.125610 
	C974.293396,859.890564 977.233643,856.737244 980.493286,854.910095 
	C985.830017,851.918640 991.505920,854.496277 996.704651,856.321167 
	C998.711243,857.025635 1000.532104,859.552673 1001.359436,861.670532 
	C1001.679443,862.489746 999.178833,864.687195 997.663635,865.874512 
	C995.898132,867.258057 993.829529,868.268127 991.848816,869.361206 
	C984.696960,873.308167 978.186890,878.006531 975.230286,885.999329 
	C972.664734,892.934875 970.206848,899.963257 968.520874,907.143005 
	C967.915955,909.719360 968.953979,914.759888 970.541016,915.386597 
	C975.492493,917.341980 980.500916,915.354431 984.709839,912.094360 
	C988.303589,909.310913 986.928467,905.845154 986.215820,902.184753 
	C985.648682,899.271423 985.387939,895.498535 986.775330,893.170410 
	C989.705078,888.253906 994.528687,885.781006 1000.659302,886.618652 
	C1005.818909,887.323547 1007.796326,890.878113 1008.790649,896.283813 
	C1012.432983,891.553589 1015.826843,887.819641 1018.457886,883.609009 
	C1028.326416,867.815857 1038.476074,852.186462 1043.414307,833.828186 
	C1044.390991,830.197205 1043.712646,827.760864 1041.991577,825.264038 
	C1040.278076,822.778320 1037.998901,820.682617 1035.812256,818.242432 
	C1029.837036,829.617615 1026.851929,841.644592 1015.065125,848.148438 
	C1015.065125,846.636292 1014.760742,845.527954 1015.111755,844.696228 
	C1019.008667,835.463379 1023.384155,826.408997 1026.771606,816.997375 
	C1027.942749,813.743469 1027.921509,808.991821 1026.347168,806.044861 
	C1023.238098,800.225037 1018.700195,795.160706 1014.681824,789.837830 
	C1012.901001,787.478699 1010.946899,785.250427 1008.182617,781.878601 
	C1008.182617,785.124329 1008.656677,786.938965 1008.109558,788.360474 
	C1002.486816,802.967529 996.973816,817.629272 990.794678,832.002441 
	C988.854370,836.515808 985.288330,840.474670 981.879150,844.141235 
	C980.510376,845.613403 977.087036,846.695251 975.464294,845.983032 
	C973.845581,845.272400 972.538452,842.118896 972.468262,839.991150 
	C972.340881,836.132446 973.688171,832.230896 973.609863,828.363647 
	C973.416687,818.816223 972.951111,809.264160 972.238892,799.740601 
	C971.662231,792.031372 970.567017,784.360901 969.701782,776.673279 
	C968.092712,777.361206 967.234680,778.172791 967.061157,779.110901 
	C964.325562,793.896790 961.761841,808.715088 958.932495,823.482605 
	C958.427979,826.115906 956.906799,828.554565 955.855042,831.083130 
	C955.247864,831.040527 954.640686,830.997986 954.033508,830.955383 
	C953.155334,828.611511 952.277100,826.267639 951.395264,823.914001 
	C947.572266,829.996094 944.399841,836.161743 940.151917,841.466125 
	C936.394409,846.158203 931.507141,849.968628 926.940002,853.964050 
	C926.250061,854.567688 924.588379,854.060669 923.376221,854.067383 
	C923.588562,852.852905 923.535645,851.508972 924.054932,850.444092 
	C928.581055,841.162537 934.021667,832.228821 937.557556,822.592590 
	C940.523743,814.509033 941.618225,805.672424 942.961731,797.078613 
	C944.270264,788.708252 944.935486,780.230835 945.654175,771.780884 
	C945.783691,770.257202 944.804504,768.639282 944.072693,766.173767 
	C942.595825,771.921387 941.736938,776.386963 940.298157,780.657166 
	C935.576355,794.671387 931.109375,808.799805 925.648743,822.528015 
	C921.083008,834.006348 914.858826,845.070557 902.753906,850.030029 
	C895.092896,853.168701 886.606201,854.925476 878.331543,855.794189 
	C863.463867,857.354980 848.485229,857.992249 833.535767,858.571533 
	C828.013184,858.785583 822.441650,857.345520 816.893066,857.350586 
	C794.144958,857.371338 771.389282,857.557800 748.929382,853.220398 
	C741.915039,851.865845 735.458984,849.046265 729.781677,844.417114 
	C718.803589,835.465759 714.883240,822.473450 710.279175,810.077148 
	C705.985535,798.516724 703.273315,786.376709 699.304138,774.682190 
	C698.419495,772.075867 695.432800,768.761719 692.995728,768.369019 
	C685.565918,767.171814 677.904419,766.651794 670.386108,767.002930 
	C664.230225,767.290466 658.683594,769.893860 656.993896,776.947876 
	C655.643555,782.585327 654.411682,788.257263 652.853943,793.837524 
	C649.297302,806.578552 646.555908,819.601440 639.831116,831.262329 
	C635.909485,838.062378 630.920471,843.417236 623.852966,847.316772 
	C609.318787,855.336121 593.257568,855.772766 577.528992,857.063110 
	C561.614258,858.368835 545.550354,858.296936 529.560303,858.106201 
	C516.427429,857.949524 503.295074,856.897217 490.186096,855.924011 
	C482.893799,855.382629 475.574066,854.585815 468.399475,853.211121 
	C452.737793,850.210266 440.821808,841.937073 434.246887,827.013916 
	C432.506775,823.064270 431.182281,818.903198 429.985168,814.747559 
	C424.706146,796.421753 419.543427,778.062439 414.382965,759.871826 
	C409.421600,766.030518 408.767517,774.812134 408.303894,782.724548 
	C406.309052,816.767700 408.228546,850.259338 430.101349,879.950684 
	C427.764557,879.818420 426.712280,879.990417 425.836517,879.673889 
	C415.744293,876.026245 408.423279,869.198669 403.227722,859.906494 
	C400.775177,855.520142 398.524719,850.947754 395.523529,846.955078 
	C386.645660,835.143982 380.085907,822.248047 375.940491,808.082092 
	C375.695618,807.245239 374.706726,806.626099 374.064056,805.905701 
	C373.668274,806.064453 373.272522,806.223206 372.876770,806.381958 
	C373.544342,812.856812 373.110840,819.694702 375.101501,825.733398 
	C379.686188,839.641113 385.166473,853.278442 390.809723,866.805847 
	C397.034241,881.726562 403.994843,896.338562 410.367615,911.199585 
	C419.013550,931.361694 427.151245,951.744751 435.998993,971.816101 
	C441.576111,984.467957 447.855530,996.888000 458.099060,1006.614441 
	C472.222290,1020.024780 486.432922,1033.345337 500.753906,1046.544067 
	C506.531952,1051.869385 512.613098,1056.878662 518.712708,1061.839478 
	C527.071777,1068.637817 535.565186,1075.271484 544.027954,1081.941528 
	C552.603943,1088.700928 561.006958,1095.704346 569.860474,1102.080322 
	C580.245422,1109.559204 590.967957,1116.578247 601.667358,1123.609131 
	C611.973816,1130.381714 622.103394,1137.534058 632.927612,1143.376465 
	C643.415955,1149.037598 655.324219,1151.100464 667.145508,1151.404297 
	C679.669067,1151.726440 692.317627,1151.412720 704.739014,1149.930542 
	C712.410400,1149.015259 720.235596,1146.327515 727.144104,1142.783447 
	C738.084595,1137.170898 748.398926,1130.307007 758.819824,1123.722046 
	C767.861755,1118.008545 776.780823,1112.087280 785.577209,1106.001831 
	C794.929993,1099.531372 804.178101,1092.898193 813.279602,1086.079590 
	C821.894409,1079.625488 830.260071,1072.838989 839.239807,1065.670288 
M709.334778,613.782043 
	C705.589355,623.587219 702.261536,633.578613 697.994446,643.151245 
	C692.469177,655.546448 685.745483,667.353638 675.591431,676.674561 
	C672.043152,679.931763 667.905518,682.772339 661.548096,680.839294 
	C670.111450,664.403198 678.995239,648.568359 686.719727,632.186890 
	C694.582214,615.512756 699.242737,597.734131 702.203003,579.485901 
	C705.188293,561.083252 706.892273,542.610107 706.066284,523.994019 
	C705.250061,505.595947 704.084656,487.196838 698.781250,468.064362 
	C697.118225,481.503967 695.702759,493.567200 694.110474,505.607056 
	C692.922363,514.590576 692.062378,523.669678 690.070862,532.483582 
	C686.381165,548.813477 682.818726,565.258362 677.615845,581.135132 
	C672.652222,596.281677 666.348022,611.097778 659.359192,625.438232 
	C653.476990,637.507874 646.336060,649.081421 638.680725,660.132202 
	C632.601318,668.908081 624.900818,676.561035 617.541931,685.154236 
	C617.824402,685.333008 618.976929,686.362488 620.325806,686.863892 
	C626.243652,689.063904 631.673279,691.997681 635.613831,697.057861 
	C636.380249,698.042114 636.472717,699.695007 636.469849,701.038635 
	C636.469116,701.396851 634.851868,702.207642 634.167664,702.038574 
	C626.529419,700.150879 618.959167,697.980530 611.298096,696.197998 
	C609.176514,695.704407 606.156799,695.349670 604.669006,696.448120 
	C593.834595,704.447083 581.069824,706.850037 568.392517,709.406189 
	C564.748962,710.140869 560.831909,709.518860 555.824829,709.518860 
	C563.005371,702.042908 568.903931,695.901611 574.802490,689.760376 
	C574.666504,689.071777 574.530579,688.383240 574.394592,687.694641 
	C566.651428,686.534363 558.910522,685.358582 551.160706,684.244202 
	C550.564087,684.158386 549.846924,684.388062 549.283875,684.668213 
	C538.601624,689.982483 528.046753,695.570129 517.221680,700.573547 
	C510.626038,703.622131 503.639404,705.944397 495.514801,703.361755 
	C497.494263,697.425842 503.709808,696.939392 507.131165,693.391663 
	C510.886688,689.497437 514.357666,685.328796 518.230713,680.966553 
	C514.506775,680.678162 510.325256,680.347168 506.142578,680.031860 
	C495.322784,679.216064 484.507629,678.306702 473.674347,677.752747 
	C472.601837,677.697876 470.709717,679.664856 470.401520,680.976318 
	C468.599731,688.643311 467.367126,696.444824 465.540192,704.104980 
	C463.154022,714.109680 462.994720,713.741699 472.905060,713.799744 
	C487.995117,713.888062 503.081238,714.748962 518.170715,714.800781 
	C536.824097,714.864868 555.438171,715.056885 573.981201,717.491760 
	C583.212158,718.703796 592.525330,719.281250 601.794189,720.216980 
	C606.179321,720.659607 610.665771,720.806274 614.902039,721.887573 
	C629.417542,725.592407 643.733093,730.145020 658.343811,733.387878 
	C666.892151,735.285156 675.848938,735.904602 684.635864,736.017700 
	C694.850403,736.149292 702.690491,731.138794 707.725403,722.114380 
	C714.401978,710.147461 721.541077,698.401001 727.511292,686.089355 
	C732.304199,676.205444 735.653259,665.621521 739.873596,654.754517 
	C738.218872,654.996521 737.617004,654.911316 737.281616,655.170715 
	C736.639221,655.667480 736.086731,656.315247 735.603943,656.978333 
	C728.538452,666.682861 719.565247,674.150146 708.839600,679.450867 
	C704.423645,681.633240 698.845276,680.344116 695.223572,675.958557 
	C697.304138,674.279480 699.557373,672.598511 701.657349,670.743958 
	C714.369446,659.517151 723.419800,645.570251 731.054932,630.637512 
	C738.205505,616.652527 743.302856,601.936462 747.692627,586.818787 
	C751.455017,573.862183 753.509216,560.748535 753.756409,547.514771 
	C753.929749,538.230591 751.995422,528.757141 749.906738,519.618652 
	C747.323364,508.316101 744.582153,496.861237 740.102600,486.233612 
	C735.660339,475.694397 729.234680,465.938751 723.156372,456.164398 
	C720.275085,451.530975 716.176392,447.654694 712.629150,443.435394 
	C712.269287,443.716187 711.909363,443.996948 711.549500,444.277710 
	C711.957397,445.431854 712.538574,446.555725 712.746094,447.744812 
	C714.584778,458.276794 716.525330,468.795319 718.101135,479.367645 
	C719.634155,489.652435 721.673035,499.976898 721.891663,510.317688 
	C722.302917,529.767517 723.195251,549.305847 719.434570,568.625916 
	C718.195496,574.991516 717.806824,581.531555 716.412109,587.855774 
	C714.538757,596.350708 712.066895,604.713623 709.334778,613.782043 
M534.426331,550.863586 
	C533.958374,550.305420 533.490417,549.747253 533.022461,549.189087 
	C532.604919,550.208313 531.881287,551.208801 531.817627,552.249695 
	C531.252869,561.486206 530.863708,570.733521 530.300232,579.970154 
	C529.970398,585.377808 529.577881,590.791199 528.930054,596.167908 
	C527.760681,605.872375 525.745239,615.520691 525.274536,625.250061 
	C524.854736,633.927124 526.165710,642.678284 526.437927,651.405334 
	C526.505066,653.559753 525.504578,655.747498 524.805298,658.728333 
	C520.607300,655.267578 516.836731,653.408630 514.960571,650.377197 
	C509.439331,641.455994 505.346466,631.621948 504.041351,621.248413 
	C501.646423,602.212646 500.280914,583.047546 498.469666,563.937927 
	C498.299438,562.141968 498.010620,560.357117 497.684998,557.863892 
	C496.806030,559.290161 496.153839,559.931091 495.988007,560.679688 
	C493.191681,573.304260 490.603394,585.976685 487.669006,598.568542 
	C484.076782,613.983154 480.157959,629.321350 476.480011,644.716431 
	C475.084381,650.558228 473.966034,656.466370 472.641022,662.723328 
	C474.561493,662.841553 475.532745,662.930725 476.505737,662.956848 
	C493.231049,663.406860 509.956848,663.841858 526.681702,664.309082 
	C527.811401,664.340698 529.172546,664.249573 530.017029,664.820435 
	C532.671143,666.614990 534.315186,665.270325 535.987244,663.392395 
	C539.819153,659.088745 543.776611,654.893250 547.514648,650.510132 
	C561.194885,634.469299 571.526245,616.312012 580.581543,597.399536 
	C588.424927,581.018250 594.830750,564.156860 597.086792,545.939331 
	C598.632385,533.458679 601.257080,521.070679 602.098938,508.553772 
	C603.266479,491.196747 603.241516,473.758301 603.647705,456.352875 
	C603.697632,454.213623 603.260010,452.062988 602.944824,448.868866 
	C596.274963,456.323547 590.085022,462.686279 584.526245,469.559479 
	C568.205627,489.739105 554.189087,511.208069 547.538330,536.782837 
	C544.330688,549.117371 540.558228,561.307251 536.873596,573.511963 
	C536.519958,574.683350 534.971008,575.493896 533.976990,576.471924 
	C533.525085,576.243286 533.073120,576.014587 532.621216,575.785950 
	C533.225342,567.761353 533.829529,559.736816 534.426331,550.863586 
M832.795410,663.023010 
	C844.579712,662.293335 856.363953,661.563721 868.643799,660.803345 
	C867.898865,648.921265 864.468567,638.501587 861.006836,628.147888 
	C857.584229,617.911316 853.972656,607.710999 849.833130,597.748657 
	C845.597046,587.553955 840.811462,577.572388 835.912476,567.672607 
	C831.046875,557.840454 825.985107,548.087158 820.558533,538.555908 
	C815.206177,529.154907 811.152222,518.923462 804.078308,510.592682 
	C820.957581,560.918701 826.497070,612.074219 817.333008,664.997070 
	C822.812561,664.339966 827.349121,663.795898 832.795410,663.023010 
M833.969299,715.475830 
	C842.753723,715.274231 851.537537,715.042542 860.322754,714.882812 
	C865.154541,714.794983 869.998718,714.988892 874.813477,714.681213 
	C875.865723,714.613953 877.541321,713.043823 877.673157,712.006042 
	C878.024963,709.237427 878.104370,706.298584 877.553162,703.577026 
	C876.079407,696.299194 874.167236,689.111328 872.536316,681.863586 
	C871.880188,678.947571 870.770142,677.153320 867.263062,677.541931 
	C857.791504,678.591492 848.296997,679.439880 838.804565,680.289795 
	C836.505066,680.495728 834.147766,680.176086 831.870728,680.489197 
	C827.054993,681.151306 822.299072,682.334473 817.470276,682.780884 
	C814.849365,683.023193 813.151062,683.466675 812.281250,686.233521 
	C811.319458,689.293030 810.021790,692.273865 808.601990,695.156799 
	C805.896118,700.651367 803.104858,706.111511 800.094421,711.442139 
	C799.482605,712.525513 797.746399,712.973877 795.608826,714.274719 
	C799.618469,703.751953 803.151733,694.479553 806.795166,684.917969 
	C801.583008,683.612976 797.161804,683.895630 795.606079,687.698853 
	C791.289795,698.250854 787.353333,708.925293 780.565369,718.406860 
	C798.282837,717.607788 815.735657,716.820618 833.969299,715.475830 
M908.652588,716.192932 
	C913.583618,716.192932 918.514709,716.192932 923.549072,716.192932 
	C919.682312,703.646912 916.210938,691.654419 912.111206,679.880737 
	C911.506897,678.145081 907.980469,676.606262 905.708191,676.455994 
	C901.871155,676.202148 897.959717,677.419922 894.072327,677.470642 
	C891.034119,677.510254 889.829834,678.667847 889.826965,681.528748 
	C889.817139,691.295959 889.869629,701.064392 889.722900,710.829712 
	C889.674683,714.036011 891.343323,714.709167 894.026184,714.895447 
	C898.589050,715.212341 903.136658,715.748779 908.652588,716.192932 
M731.685852,725.923950 
	C741.893433,724.527466 752.101074,723.130981 762.043701,721.770752 
	C762.937317,704.849854 763.766235,689.154419 764.595154,673.458984 
	C763.108276,675.090210 762.518616,676.796936 761.968994,678.516418 
	C757.291626,693.147095 750.877991,706.798462 739.732422,717.755737 
	C736.939148,720.501892 734.036682,723.137024 731.685852,725.923950 
M801.808167,664.039795 
	C801.621765,664.830017 801.435425,665.620239 801.246338,666.421814 
	C807.844360,667.457764 809.947693,666.502808 811.007385,661.301331 
	C811.888794,656.974609 812.334412,652.540466 812.697266,648.131165 
	C813.253296,641.374634 813.770569,634.603516 813.941284,627.829468 
	C814.148865,619.589417 814.129578,611.335388 813.885315,603.097046 
	C813.808716,600.514587 812.688049,597.963135 811.800659,594.421021 
	C810.648621,607.696655 810.088928,619.907288 808.392273,631.957825 
	C806.911072,642.477844 804.148926,652.817627 801.808167,664.039795 
M897.525208,662.978577 
	C900.241760,662.978577 902.958374,662.978577 906.295959,662.978577 
	C899.397522,647.690247 892.905151,633.301819 886.412720,618.913391 
	C886.156006,618.979980 885.899292,619.046509 885.642578,619.113098 
	C886.986511,633.630127 888.330444,648.147217 889.703247,662.976685 
	C892.321472,662.976685 894.455200,662.976685 897.525208,662.978577 
M369.495117,904.711182 
	C369.916962,902.335022 370.643433,899.964966 370.690704,897.581360 
	C370.765656,893.800903 368.595428,891.930908 364.794708,891.893982 
	C361.010101,891.857178 358.816895,893.585449 358.723236,897.438965 
	C358.618042,901.767395 358.437317,906.124084 358.818970,910.421387 
	C359.003326,912.497253 359.965729,914.844055 361.330658,916.410278 
	C365.185638,920.833923 370.079529,917.887207 375.033630,917.840088 
	C371.112671,914.426636 368.390900,910.823120 369.495117,904.711182 
M447.873901,685.143005 
	C447.294281,683.701050 446.714630,682.259094 446.134979,680.817139 
	C442.086426,692.313354 437.659607,703.447815 438.688019,716.509583 
	C443.369080,715.896240 447.529938,715.351013 451.625305,714.814331 
	C450.349182,704.865051 449.136047,695.406982 447.873901,685.143005 
M1001.299988,893.622192 
	C1000.568176,892.089661 999.836304,890.557190 999.410217,889.664978 
	C989.645874,894.691101 989.085999,901.411194 995.337402,910.990356 
	C993.670349,912.767578 992.122742,914.417542 990.575073,916.067444 
	C993.268982,917.234985 995.364929,917.277100 997.458618,917.225952 
	C1001.481262,917.127747 1004.322266,914.934204 1004.119446,911.064026 
	C1003.825256,905.448242 1002.494385,899.886780 1001.299988,893.622192 
M580.552002,660.031189 
	C576.548340,663.694885 572.544739,667.358582 568.053772,671.468201 
	C572.641968,672.326721 576.220642,673.208313 579.850586,673.559448 
	C581.102966,673.680603 583.289307,672.800964 583.674011,671.832397 
	C586.145996,665.608521 588.236206,659.232910 590.841858,651.793457 
	C586.821594,654.945374 583.922363,657.218323 580.552002,660.031189 
M1072.841675,884.325806 
	C1070.468140,887.715576 1068.094604,891.105347 1065.721069,894.495117 
	C1077.111206,888.324219 1083.396118,878.995361 1083.781616,866.017761 
	C1080.267456,871.912598 1076.753418,877.807434 1072.841675,884.325806 
M482.894928,1254.349976 
	C483.248627,1255.046143 483.602325,1255.742310 483.956055,1256.438477 
	C485.320129,1255.519287 486.711639,1254.638062 488.043579,1253.674438 
	C494.066132,1249.317017 497.308838,1243.382568 498.811371,1235.237671 
	C493.216553,1242.044189 488.335724,1247.982056 482.894928,1254.349976 
M739.367188,652.868469 
	C739.443359,652.974548 739.519470,653.080627 739.595581,653.186829 
	C739.519470,653.162842 739.443359,653.138916 739.367188,652.868469 
z"/>
<path fill="#AFAFAF" opacity="1.000000" stroke="none" 
	d="
M461.145081,1214.791138 
	C462.361420,1212.051880 463.942078,1209.278564 465.522705,1206.505127 
	C466.033234,1206.698364 466.543762,1206.891602 467.054291,1207.084839 
	C465.353088,1211.743408 463.651886,1216.402100 461.625549,1221.204102 
	C461.370087,1219.150757 461.439758,1216.953979 461.145081,1214.791138 
z"/>
<path fill="#AFAFAF" opacity="1.000000" stroke="none" 
	d="
M477.947815,1232.860107 
	C478.619354,1231.553589 479.569336,1230.407837 480.519287,1229.262085 
	C480.828979,1229.428467 481.138672,1229.594849 481.448364,1229.761230 
	C481.054443,1231.009766 480.660522,1232.258423 480.071533,1233.749512 
	C479.326385,1233.668213 478.776306,1233.344482 477.947815,1232.860107 
z"/>
<path fill="#AFAFAF" opacity="1.000000" stroke="none" 
	d="
M448.882507,1236.146484 
	C448.968658,1236.990112 448.726990,1237.821167 448.714661,1239.041138 
	C448.132904,1239.047363 447.321747,1238.664795 446.510620,1238.282104 
	C447.191986,1237.566040 447.873352,1236.849854 448.882507,1236.146484 
z"/>
<path fill="#AFAFAF" opacity="1.000000" stroke="none" 
	d="
M461.265503,1239.582886 
	C462.161133,1238.929810 463.277008,1238.506470 464.750366,1238.173584 
	C463.900513,1238.780151 462.693146,1239.296387 461.265503,1239.582886 
z"/>
<path fill="#AFAFAF" opacity="1.000000" stroke="none" 
	d="
M467.178589,1238.265747 
	C467.511566,1237.750610 468.014313,1237.427002 468.810333,1237.172363 
	C468.518524,1237.646606 467.933411,1238.051880 467.178589,1238.265747 
z"/>
<path fill="#AFAFAF" opacity="1.000000" stroke="none" 
	d="
M479.298584,1236.968262 
	C479.456482,1237.632446 479.288177,1238.402466 478.857788,1239.343506 
	C478.721252,1238.701050 478.846832,1237.887451 479.298584,1236.968262 
z"/>
<path fill="#AFAFAF" opacity="1.000000" stroke="none" 
	d="
M475.383850,1246.940308 
	C475.401398,1247.599121 475.090698,1248.315674 474.497253,1249.148315 
	C474.494843,1248.508911 474.775177,1247.753540 475.383850,1246.940308 
z"/>
<path fill="#FEFEFE" opacity="1.000000" stroke="none" 
	d="
M838.987549,1065.934570 
	C830.260071,1072.838989 821.894409,1079.625488 813.279602,1086.079590 
	C804.178101,1092.898193 794.929993,1099.531372 785.577209,1106.001831 
	C776.780823,1112.087280 767.861755,1118.008545 758.819824,1123.722046 
	C748.398926,1130.307007 738.084595,1137.170898 727.144104,1142.783447 
	C720.235596,1146.327515 712.410400,1149.015259 704.739014,1149.930542 
	C692.317627,1151.412720 679.669067,1151.726440 667.145508,1151.404297 
	C655.324219,1151.100464 643.415955,1149.037598 632.927612,1143.376465 
	C622.103394,1137.534058 611.973816,1130.381714 601.667358,1123.609131 
	C590.967957,1116.578247 580.245422,1109.559204 569.860474,1102.080322 
	C561.006958,1095.704346 552.603943,1088.700928 544.027954,1081.941528 
	C535.565186,1075.271484 527.071777,1068.637817 518.712708,1061.839478 
	C512.613098,1056.878662 506.531952,1051.869385 500.753906,1046.544067 
	C486.432922,1033.345337 472.222290,1020.024780 458.099060,1006.614441 
	C447.855530,996.888000 441.576111,984.467957 435.998993,971.816101 
	C427.151245,951.744751 419.013550,931.361694 410.367615,911.199585 
	C403.994843,896.338562 397.034241,881.726562 390.809723,866.805847 
	C385.166473,853.278442 379.686188,839.641113 375.101501,825.733398 
	C373.110840,819.694702 373.544342,812.856812 372.876770,806.381958 
	C373.272522,806.223206 373.668274,806.064453 374.064056,805.905701 
	C374.706726,806.626099 375.695618,807.245239 375.940491,808.082092 
	C380.085907,822.248047 386.645660,835.143982 395.523529,846.955078 
	C398.524719,850.947754 400.775177,855.520142 403.227722,859.906494 
	C408.423279,869.198669 415.744293,876.026245 425.836517,879.673889 
	C426.712280,879.990417 427.764557,879.818420 430.101349,879.950684 
	C408.228546,850.259338 406.309052,816.767700 408.303894,782.724548 
	C408.767517,774.812134 409.421600,766.030518 414.382965,759.871826 
	C419.543427,778.062439 424.706146,796.421753 429.985168,814.747559 
	C431.182281,818.903198 432.506775,823.064270 434.246887,827.013916 
	C440.821808,841.937073 452.737793,850.210266 468.399475,853.211121 
	C475.574066,854.585815 482.893799,855.382629 490.186096,855.924011 
	C503.295074,856.897217 516.427429,857.949524 529.560303,858.106201 
	C545.550354,858.296936 561.614258,858.368835 577.528992,857.063110 
	C593.257568,855.772766 609.318787,855.336121 623.852966,847.316772 
	C630.920471,843.417236 635.909485,838.062378 639.831116,831.262329 
	C646.555908,819.601440 649.297302,806.578552 652.853943,793.837524 
	C654.411682,788.257263 655.643555,782.585327 656.993896,776.947876 
	C658.683594,769.893860 664.230225,767.290466 670.386108,767.002930 
	C677.904419,766.651794 685.565918,767.171814 692.995728,768.369019 
	C695.432800,768.761719 698.419495,772.075867 699.304138,774.682190 
	C703.273315,786.376709 705.985535,798.516724 710.279175,810.077148 
	C714.883240,822.473450 718.803589,835.465759 729.781677,844.417114 
	C735.458984,849.046265 741.915039,851.865845 748.929382,853.220398 
	C771.389282,857.557800 794.144958,857.371338 816.893066,857.350586 
	C822.441650,857.345520 828.013184,858.785583 833.535767,858.571533 
	C848.485229,857.992249 863.463867,857.354980 878.331543,855.794189 
	C886.606201,854.925476 895.092896,853.168701 902.753906,850.030029 
	C914.858826,845.070557 921.083008,834.006348 925.648743,822.528015 
	C931.109375,808.799805 935.576355,794.671387 940.298157,780.657166 
	C941.736938,776.386963 942.595825,771.921387 944.072693,766.173767 
	C944.804504,768.639282 945.783691,770.257202 945.654175,771.780884 
	C944.935486,780.230835 944.270264,788.708252 942.961731,797.078613 
	C941.618225,805.672424 940.523743,814.509033 937.557556,822.592590 
	C934.021667,832.228821 928.581055,841.162537 924.054932,850.444092 
	C923.535645,851.508972 923.588562,852.852905 923.376221,854.067383 
	C924.588379,854.060669 926.250061,854.567688 926.940002,853.964050 
	C931.507141,849.968628 936.394409,846.158203 940.151917,841.466125 
	C944.399841,836.161743 947.572266,829.996094 951.395264,823.914001 
	C952.277100,826.267639 953.155334,828.611511 954.033508,830.955383 
	C954.640686,830.997986 955.247864,831.040527 955.855042,831.083130 
	C956.906799,828.554565 958.427979,826.115906 958.932495,823.482605 
	C961.761841,808.715088 964.325562,793.896790 967.061157,779.110901 
	C967.234680,778.172791 968.092712,777.361206 969.701782,776.673279 
	C970.567017,784.360901 971.662231,792.031372 972.238892,799.740601 
	C972.951111,809.264160 973.416687,818.816223 973.609863,828.363647 
	C973.688171,832.230896 972.340881,836.132446 972.468262,839.991150 
	C972.538452,842.118896 973.845581,845.272400 975.464294,845.983032 
	C977.087036,846.695251 980.510376,845.613403 981.879150,844.141235 
	C985.288330,840.474670 988.854370,836.515808 990.794678,832.002441 
	C996.973816,817.629272 1002.486816,802.967529 1008.109558,788.360474 
	C1008.656677,786.938965 1008.182617,785.124329 1008.182617,781.878601 
	C1010.946899,785.250427 1012.901001,787.478699 1014.681824,789.837830 
	C1018.700195,795.160706 1023.238098,800.225037 1026.347168,806.044861 
	C1027.921509,808.991821 1027.942749,813.743469 1026.771606,816.997375 
	C1023.384155,826.408997 1019.008667,835.463379 1015.111755,844.696228 
	C1014.760742,845.527954 1015.065125,846.636292 1015.065125,848.148438 
	C1026.851929,841.644592 1029.837036,829.617615 1035.812256,818.242432 
	C1037.998901,820.682617 1040.278076,822.778320 1041.991577,825.264038 
	C1043.712646,827.760864 1044.390991,830.197205 1043.414307,833.828186 
	C1038.476074,852.186462 1028.326416,867.815857 1018.457886,883.609009 
	C1015.826843,887.819641 1012.432983,891.553589 1008.790649,896.283813 
	C1007.796326,890.878113 1005.818909,887.323547 1000.659302,886.618652 
	C994.528687,885.781006 989.705078,888.253906 986.775330,893.170410 
	C985.387939,895.498535 985.648682,899.271423 986.215820,902.184753 
	C986.928467,905.845154 988.303589,909.310913 984.709839,912.094360 
	C980.500916,915.354431 975.492493,917.341980 970.541016,915.386597 
	C968.953979,914.759888 967.915955,909.719360 968.520874,907.143005 
	C970.206848,899.963257 972.664734,892.934875 975.230286,885.999329 
	C978.186890,878.006531 984.696960,873.308167 991.848816,869.361206 
	C993.829529,868.268127 995.898132,867.258057 997.663635,865.874512 
	C999.178833,864.687195 1001.679443,862.489746 1001.359436,861.670532 
	C1000.532104,859.552673 998.711243,857.025635 996.704651,856.321167 
	C991.505920,854.496277 985.830017,851.918640 980.493286,854.910095 
	C977.233643,856.737244 974.293396,859.890564 972.320251,863.125610 
	C963.804443,877.087952 960.568481,893.147278 954.999939,908.290222 
	C950.214417,921.304260 945.381653,934.313477 940.073242,947.119019 
	C935.683228,957.709229 931.161011,968.329285 925.593872,978.321228 
	C920.808228,986.910583 914.860657,994.950012 908.691284,1002.642700 
	C902.923279,1009.835022 896.607788,1016.713989 889.785400,1022.906921 
	C878.159058,1033.460449 865.966125,1043.391235 853.971497,1053.536743 
	C849.114746,1057.644897 844.153564,1061.629517 838.987549,1065.934570 
M686.499573,1026.405273 
	C697.532898,1026.864014 708.653687,1026.645996 719.563904,1028.056763 
	C725.332886,1028.802734 729.685303,1029.108887 733.297607,1022.938477 
	C731.266235,1021.807983 729.490906,1020.204773 727.475952,1019.802734 
	C717.521729,1017.816833 707.544189,1014.982117 697.499634,1014.636658 
	C681.668579,1014.092163 665.756409,1014.958618 649.922791,1015.940063 
	C644.255615,1016.291443 638.648560,1018.505859 633.168945,1020.333984 
	C631.866821,1020.768433 630.086914,1023.511169 630.451782,1024.416016 
	C631.190735,1026.248901 633.004395,1028.087769 634.831543,1028.912354 
	C636.490295,1029.661011 638.769714,1029.224243 640.749878,1029.037964 
	C649.511780,1028.213989 658.249329,1027.063110 667.025635,1026.483276 
	C673.158508,1026.078003 679.339844,1026.405151 686.499573,1026.405273 
M677.141602,870.716919 
	C670.473938,870.594177 664.435364,874.577942 663.611755,880.126160 
	C662.844727,885.293579 662.434204,890.535583 662.227905,895.758972 
	C661.998169,901.574951 662.691284,907.462708 662.069092,913.220459 
	C660.787170,925.083862 668.338196,930.724487 676.933533,935.889221 
	C680.414795,937.981079 682.246216,936.997742 682.145203,932.973267 
	C681.751221,917.279114 681.470154,901.577698 680.712585,885.899902 
	C680.473267,880.947021 678.876587,876.059814 677.141602,870.716919 
z"/>
<path fill="#FBFBFB" opacity="1.000000" stroke="none" 
	d="
M709.593384,613.457642 
	C712.066895,604.713623 714.538757,596.350708 716.412109,587.855774 
	C717.806824,581.531555 718.195496,574.991516 719.434570,568.625916 
	C723.195251,549.305847 722.302917,529.767517 721.891663,510.317688 
	C721.673035,499.976898 719.634155,489.652435 718.101135,479.367645 
	C716.525330,468.795319 714.584778,458.276794 712.746094,447.744812 
	C712.538574,446.555725 711.957397,445.431854 711.549500,444.277710 
	C711.909363,443.996948 712.269287,443.716187 712.629150,443.435394 
	C716.176392,447.654694 720.275085,451.530975 723.156372,456.164398 
	C729.234680,465.938751 735.660339,475.694397 740.102600,486.233612 
	C744.582153,496.861237 747.323364,508.316101 749.906738,519.618652 
	C751.995422,528.757141 753.929749,538.230591 753.756409,547.514771 
	C753.509216,560.748535 751.455017,573.862183 747.692627,586.818787 
	C743.302856,601.936462 738.205505,616.652527 731.054932,630.637512 
	C723.419800,645.570251 714.369446,659.517151 701.657349,670.743958 
	C699.557373,672.598511 697.304138,674.279480 695.223572,675.958557 
	C698.845276,680.344116 704.423645,681.633240 708.839600,679.450867 
	C719.565247,674.150146 728.538452,666.682861 735.603943,656.978333 
	C736.086731,656.315247 736.639221,655.667480 737.281616,655.170715 
	C737.617004,654.911316 738.218872,654.996521 739.873596,654.754517 
	C735.653259,665.621521 732.304199,676.205444 727.511292,686.089355 
	C721.541077,698.401001 714.401978,710.147461 707.725403,722.114380 
	C702.690491,731.138794 694.850403,736.149292 684.635864,736.017700 
	C675.848938,735.904602 666.892151,735.285156 658.343811,733.387878 
	C643.733093,730.145020 629.417542,725.592407 614.902039,721.887573 
	C610.665771,720.806274 606.179321,720.659607 601.794189,720.216980 
	C592.525330,719.281250 583.212158,718.703796 573.981201,717.491760 
	C555.438171,715.056885 536.824097,714.864868 518.170715,714.800781 
	C503.081238,714.748962 487.995117,713.888062 472.905060,713.799744 
	C462.994720,713.741699 463.154022,714.109680 465.540192,704.104980 
	C467.367126,696.444824 468.599731,688.643311 470.401520,680.976318 
	C470.709717,679.664856 472.601837,677.697876 473.674347,677.752747 
	C484.507629,678.306702 495.322784,679.216064 506.142578,680.031860 
	C510.325256,680.347168 514.506775,680.678162 518.230713,680.966553 
	C514.357666,685.328796 510.886688,689.497437 507.131165,693.391663 
	C503.709808,696.939392 497.494263,697.425842 495.514801,703.361755 
	C503.639404,705.944397 510.626038,703.622131 517.221680,700.573547 
	C528.046753,695.570129 538.601624,689.982483 549.283875,684.668213 
	C549.846924,684.388062 550.564087,684.158386 551.160706,684.244202 
	C558.910522,685.358582 566.651428,686.534363 574.394592,687.694641 
	C574.530579,688.383240 574.666504,689.071777 574.802490,689.760376 
	C568.903931,695.901611 563.005371,702.042908 555.824829,709.518860 
	C560.831909,709.518860 564.748962,710.140869 568.392517,709.406189 
	C581.069824,706.850037 593.834595,704.447083 604.669006,696.448120 
	C606.156799,695.349670 609.176514,695.704407 611.298096,696.197998 
	C618.959167,697.980530 626.529419,700.150879 634.167664,702.038574 
	C634.851868,702.207642 636.469116,701.396851 636.469849,701.038635 
	C636.472717,699.695007 636.380249,698.042114 635.613831,697.057861 
	C631.673279,691.997681 626.243652,689.063904 620.325806,686.863892 
	C618.976929,686.362488 617.824402,685.333008 617.541931,685.154236 
	C624.900818,676.561035 632.601318,668.908081 638.680725,660.132202 
	C646.336060,649.081421 653.476990,637.507874 659.359192,625.438232 
	C666.348022,611.097778 672.652222,596.281677 677.615845,581.135132 
	C682.818726,565.258362 686.381165,548.813477 690.070862,532.483582 
	C692.062378,523.669678 692.922363,514.590576 694.110474,505.607056 
	C695.702759,493.567200 697.118225,481.503967 698.781250,468.064362 
	C704.084656,487.196838 705.250061,505.595947 706.066284,523.994019 
	C706.892273,542.610107 705.188293,561.083252 702.203003,579.485901 
	C699.242737,597.734131 694.582214,615.512756 686.719727,632.186890 
	C678.995239,648.568359 670.111450,664.403198 661.548096,680.839294 
	C667.905518,682.772339 672.043152,679.931763 675.591431,676.674561 
	C685.745483,667.353638 692.469177,655.546448 697.994446,643.151245 
	C702.261536,633.578613 705.589355,623.587219 709.593384,613.457642 
z"/>
<path fill="#FBFBFB" opacity="1.000000" stroke="none" 
	d="
M534.429993,551.287964 
	C533.829529,559.736816 533.225342,567.761353 532.621216,575.785950 
	C533.073120,576.014587 533.525085,576.243286 533.976990,576.471924 
	C534.971008,575.493896 536.519958,574.683350 536.873596,573.511963 
	C540.558228,561.307251 544.330688,549.117371 547.538330,536.782837 
	C554.189087,511.208069 568.205627,489.739105 584.526245,469.559479 
	C590.085022,462.686279 596.274963,456.323547 602.944824,448.868866 
	C603.260010,452.062988 603.697632,454.213623 603.647705,456.352875 
	C603.241516,473.758301 603.266479,491.196747 602.098938,508.553772 
	C601.257080,521.070679 598.632385,533.458679 597.086792,545.939331 
	C594.830750,564.156860 588.424927,581.018250 580.581543,597.399536 
	C571.526245,616.312012 561.194885,634.469299 547.514648,650.510132 
	C543.776611,654.893250 539.819153,659.088745 535.987244,663.392395 
	C534.315186,665.270325 532.671143,666.614990 530.017029,664.820435 
	C529.172546,664.249573 527.811401,664.340698 526.681702,664.309082 
	C509.956848,663.841858 493.231049,663.406860 476.505737,662.956848 
	C475.532745,662.930725 474.561493,662.841553 472.641022,662.723328 
	C473.966034,656.466370 475.084381,650.558228 476.480011,644.716431 
	C480.157959,629.321350 484.076782,613.983154 487.669006,598.568542 
	C490.603394,585.976685 493.191681,573.304260 495.988007,560.679688 
	C496.153839,559.931091 496.806030,559.290161 497.684998,557.863892 
	C498.010620,560.357117 498.299438,562.141968 498.469666,563.937927 
	C500.280914,583.047546 501.646423,602.212646 504.041351,621.248413 
	C505.346466,631.621948 509.439331,641.455994 514.960571,650.377197 
	C516.836731,653.408630 520.607300,655.267578 524.805298,658.728333 
	C525.504578,655.747498 526.505066,653.559753 526.437927,651.405334 
	C526.165710,642.678284 524.854736,633.927124 525.274536,625.250061 
	C525.745239,615.520691 527.760681,605.872375 528.930054,596.167908 
	C529.577881,590.791199 529.970398,585.377808 530.300232,579.970154 
	C530.863708,570.733521 531.252869,561.486206 531.817627,552.249695 
	C531.881287,551.208801 532.604919,550.208313 533.022461,549.189087 
	C533.490417,549.747253 533.958374,550.305420 534.429993,551.287964 
z"/>
<path fill="#F9F9F9" opacity="1.000000" stroke="none" 
	d="
M315.122620,823.919739 
	C316.507812,826.306335 317.893005,828.692871 319.278168,831.079468 
	C319.771759,831.036804 320.265320,830.994141 320.758881,830.951477 
	C322.133453,827.633179 323.508026,824.314880 325.059601,820.569275 
	C330.286652,833.053528 336.058105,845.569519 349.532440,852.215698 
	C345.656952,844.988586 341.265015,837.982849 338.047180,830.473938 
	C334.640533,822.524414 332.333496,814.101990 329.615814,805.863098 
	C329.453979,805.372620 329.872253,804.664612 330.084259,804.080872 
	C334.360809,792.306152 338.631744,780.529236 342.957794,768.772644 
	C343.324310,767.776672 344.072296,766.921143 344.982117,765.453369 
	C355.039948,785.121765 357.934387,806.145508 361.266083,827.576477 
	C361.972382,824.346497 362.678680,821.116516 363.164948,818.892883 
	C367.188141,830.545898 371.503571,843.045288 375.980591,856.012817 
	C373.604401,856.012817 371.466278,855.982117 369.329376,856.019653 
	C365.729767,856.082947 363.607300,858.170349 362.848663,861.437439 
	C362.089233,864.708069 364.144379,866.459717 366.816437,868.027344 
	C372.260468,871.221130 378.374146,873.893494 382.671722,878.287231 
	C390.671722,886.466064 394.534546,897.176147 395.849609,908.420776 
	C396.703247,915.719727 392.232422,918.228821 385.277496,915.251831 
	C378.141907,912.197510 376.005402,908.937256 375.995972,901.204346 
	C375.990051,896.323792 376.524994,891.697815 370.884216,888.523254 
	C362.791321,883.968750 355.262238,887.321228 354.541077,897.487000 
	C352.564056,895.116150 350.926361,893.266113 349.413025,891.319397 
	C337.936859,876.555542 326.505890,861.705017 318.976746,844.445923 
	C316.303528,838.318115 315.172607,831.517578 313.732666,824.547729 
	C314.459320,824.020813 314.790985,823.970276 315.122620,823.919739 
z"/>
<path fill="#FAFAFA" opacity="1.000000" stroke="none" 
	d="
M832.340576,663.137451 
	C827.349121,663.795898 822.812561,664.339966 817.333008,664.997070 
	C826.497070,612.074219 820.957581,560.918701 804.078308,510.592682 
	C811.152222,518.923462 815.206177,529.154907 820.558533,538.555908 
	C825.985107,548.087158 831.046875,557.840454 835.912476,567.672607 
	C840.811462,577.572388 845.597046,587.553955 849.833130,597.748657 
	C853.972656,607.710999 857.584229,617.911316 861.006836,628.147888 
	C864.468567,638.501587 867.898865,648.921265 868.643799,660.803345 
	C856.363953,661.563721 844.579712,662.293335 832.340576,663.137451 
z"/>
<path fill="#F9F9F9" opacity="1.000000" stroke="none" 
	d="
M833.578857,715.754639 
	C815.735657,716.820618 798.282837,717.607788 780.565369,718.406860 
	C787.353333,708.925293 791.289795,698.250854 795.606079,687.698853 
	C797.161804,683.895630 801.583008,683.612976 806.795166,684.917969 
	C803.151733,694.479553 799.618469,703.751953 795.608826,714.274719 
	C797.746399,712.973877 799.482605,712.525513 800.094421,711.442139 
	C803.104858,706.111511 805.896118,700.651367 808.601990,695.156799 
	C810.021790,692.273865 811.319458,689.293030 812.281250,686.233521 
	C813.151062,683.466675 814.849365,683.023193 817.470276,682.780884 
	C822.299072,682.334473 827.054993,681.151306 831.870728,680.489197 
	C834.147766,680.176086 836.505066,680.495728 838.804565,680.289795 
	C848.296997,679.439880 857.791504,678.591492 867.263062,677.541931 
	C870.770142,677.153320 871.880188,678.947571 872.536316,681.863586 
	C874.167236,689.111328 876.079407,696.299194 877.553162,703.577026 
	C878.104370,706.298584 878.024963,709.237427 877.673157,712.006042 
	C877.541321,713.043823 875.865723,714.613953 874.813477,714.681213 
	C869.998718,714.988892 865.154541,714.794983 860.322754,714.882812 
	C851.537537,715.042542 842.753723,715.274231 833.578857,715.754639 
z"/>
<path fill="#FBFBFB" opacity="1.000000" stroke="none" 
	d="
M908.171631,716.192993 
	C903.136658,715.748779 898.589050,715.212341 894.026184,714.895447 
	C891.343323,714.709167 889.674683,714.036011 889.722900,710.829712 
	C889.869629,701.064392 889.817139,691.295959 889.826965,681.528748 
	C889.829834,678.667847 891.034119,677.510254 894.072327,677.470642 
	C897.959717,677.419922 901.871155,676.202148 905.708191,676.455994 
	C907.980469,676.606262 911.506897,678.145081 912.111206,679.880737 
	C916.210938,691.654419 919.682312,703.646912 923.549072,716.192932 
	C918.514709,716.192932 913.583618,716.192932 908.171631,716.192993 
z"/>
<path fill="#F1F1F1" opacity="1.000000" stroke="none" 
	d="
M731.435059,725.873535 
	C734.036682,723.137024 736.939148,720.501892 739.732422,717.755737 
	C750.877991,706.798462 757.291626,693.147095 761.968994,678.516418 
	C762.518616,676.796936 763.108276,675.090210 764.595154,673.458984 
	C763.766235,689.154419 762.937317,704.849854 762.043701,721.770752 
	C752.101074,723.130981 741.893433,724.527466 731.435059,725.873535 
z"/>
<path fill="#EAEAEA" opacity="1.000000" stroke="none" 
	d="
M801.880432,663.638428 
	C804.148926,652.817627 806.911072,642.477844 808.392273,631.957825 
	C810.088928,619.907288 810.648621,607.696655 811.800659,594.421021 
	C812.688049,597.963135 813.808716,600.514587 813.885315,603.097046 
	C814.129578,611.335388 814.148865,619.589417 813.941284,627.829468 
	C813.770569,634.603516 813.253296,641.374634 812.697266,648.131165 
	C812.334412,652.540466 811.888794,656.974609 811.007385,661.301331 
	C809.947693,666.502808 807.844360,667.457764 801.246338,666.421814 
	C801.435425,665.620239 801.621765,664.830017 801.880432,663.638428 
z"/>
<path fill="#F0F0F0" opacity="1.000000" stroke="none" 
	d="
M897.057007,662.977661 
	C894.455200,662.976685 892.321472,662.976685 889.703247,662.976685 
	C888.330444,648.147217 886.986511,633.630127 885.642578,619.113098 
	C885.899292,619.046509 886.156006,618.979980 886.412720,618.913391 
	C892.905151,633.301819 899.397522,647.690247 906.295959,662.978577 
	C902.958374,662.978577 900.241760,662.978577 897.057007,662.977661 
z"/>
<path fill="#F2F2F2" opacity="1.000000" stroke="none" 
	d="
M369.442261,905.167236 
	C368.390900,910.823120 371.112671,914.426636 375.033630,917.840088 
	C370.079529,917.887207 365.185638,920.833923 361.330658,916.410278 
	C359.965729,914.844055 359.003326,912.497253 358.818970,910.421387 
	C358.437317,906.124084 358.618042,901.767395 358.723236,897.438965 
	C358.816895,893.585449 361.010101,891.857178 364.794708,891.893982 
	C368.595428,891.930908 370.765656,893.800903 370.690704,897.581360 
	C370.643433,899.964966 369.916962,902.335022 369.442261,905.167236 
z"/>
<path fill="#F2F2F2" opacity="1.000000" stroke="none" 
	d="
M447.898407,685.545898 
	C449.136047,695.406982 450.349182,704.865051 451.625305,714.814331 
	C447.529938,715.351013 443.369080,715.896240 438.688019,716.509583 
	C437.659607,703.447815 442.086426,692.313354 446.134979,680.817139 
	C446.714630,682.259094 447.294281,683.701050 447.898407,685.545898 
z"/>
<path fill="#F5F5F5" opacity="1.000000" stroke="none" 
	d="
M1001.452759,893.962158 
	C1002.494385,899.886780 1003.825256,905.448242 1004.119446,911.064026 
	C1004.322266,914.934204 1001.481262,917.127747 997.458618,917.225952 
	C995.364929,917.277100 993.268982,917.234985 990.575073,916.067444 
	C992.122742,914.417542 993.670349,912.767578 995.337402,910.990356 
	C989.085999,901.411194 989.645874,894.691101 999.410217,889.664978 
	C999.836304,890.557190 1000.568176,892.089661 1001.452759,893.962158 
z"/>
<path fill="#EEEEEE" opacity="1.000000" stroke="none" 
	d="
M580.787598,659.761230 
	C583.922363,657.218323 586.821594,654.945374 590.841858,651.793457 
	C588.236206,659.232910 586.145996,665.608521 583.674011,671.832397 
	C583.289307,672.800964 581.102966,673.680603 579.850586,673.559448 
	C576.220642,673.208313 572.641968,672.326721 568.053772,671.468201 
	C572.544739,667.358582 576.548340,663.694885 580.787598,659.761230 
z"/>
<path fill="#D9D9D9" opacity="1.000000" stroke="none" 
	d="
M1073.040527,884.014038 
	C1076.753418,877.807434 1080.267456,871.912598 1083.781616,866.017761 
	C1083.396118,878.995361 1077.111206,888.324219 1065.721069,894.495117 
	C1068.094604,891.105347 1070.468140,887.715576 1073.040527,884.014038 
z"/>
<path fill="#C3C3C3" opacity="1.000000" stroke="none" 
	d="
M483.174896,1254.135010 
	C488.335724,1247.982056 493.216553,1242.044189 498.811371,1235.237671 
	C497.308838,1243.382568 494.066132,1249.317017 488.043579,1253.674438 
	C486.711639,1254.638062 485.320129,1255.519287 483.956055,1256.438477 
	C483.602325,1255.742310 483.248627,1255.046143 483.174896,1254.135010 
z"/>
<path fill="#B8B8B8" opacity="1.000000" stroke="none" 
	d="
M315.088776,823.480408 
	C314.790985,823.970276 314.459320,824.020813 313.626709,824.118774 
	C312.573730,820.283630 312.021759,816.401123 311.469788,812.518555 
	C312.143158,812.414978 312.816559,812.311462 313.489929,812.207947 
	C314.011597,815.818970 314.533264,819.430054 315.088776,823.480408 
z"/>
<path fill="#FBFBFB" opacity="1.000000" stroke="none" 
	d="
M739.367188,652.991699 
	C739.443359,653.138916 739.519470,653.162842 739.595581,653.186768 
	C739.519470,653.080627 739.443359,652.974548 739.367188,652.991699 
z"/>
<path fill="#0A0A0A" opacity="1.000000" stroke="none" 
	d="
M685.999512,1026.405273 
	C679.339844,1026.405151 673.158508,1026.078003 667.025635,1026.483276 
	C658.249329,1027.063110 649.511780,1028.213989 640.749878,1029.037964 
	C638.769714,1029.224243 636.490295,1029.661011 634.831543,1028.912354 
	C633.004395,1028.087769 631.190735,1026.248901 630.451782,1024.416016 
	C630.086914,1023.511169 631.866821,1020.768433 633.168945,1020.333984 
	C638.648560,1018.505859 644.255615,1016.291443 649.922791,1015.940063 
	C665.756409,1014.958618 681.668579,1014.092163 697.499634,1014.636658 
	C707.544189,1014.982117 717.521729,1017.816833 727.475952,1019.802734 
	C729.490906,1020.204773 731.266235,1021.807983 733.297607,1022.938477 
	C729.685303,1029.108887 725.332886,1028.802734 719.563904,1028.056763 
	C708.653687,1026.645996 697.532898,1026.864014 685.999512,1026.405273 
z"/>
<path fill="#050505" opacity="1.000000" stroke="none" 
	d="
M677.521362,870.929688 
	C678.876587,876.059814 680.473267,880.947021 680.712585,885.899902 
	C681.470154,901.577698 681.751221,917.279114 682.145203,932.973267 
	C682.246216,936.997742 680.414795,937.981079 676.933533,935.889221 
	C668.338196,930.724487 660.787170,925.083862 662.069092,913.220459 
	C662.691284,907.462708 661.998169,901.574951 662.227905,895.758972 
	C662.434204,890.535583 662.844727,885.293579 663.611755,880.126160 
	C664.435364,874.577942 670.473938,870.594177 677.521362,870.929688 
z"/>
</svg>